<svg id="people-icon" xmlns="http://www.w3.org/2000/svg" viewBox="0 0 272.24 281.5"><defs><style>.cls-1{fill:#525150}</style></defs><path class="cls-1" d="M528.74 354.43c-25.87-6.93-25.43-18.9-25.43-18.9l-.06-20.72s9.48-10.68 11.37-24.81c0 0 7.53-2.2 8.79-13.19s-3.77-11.93-3.77-11.93 17.14-51.18-16.39-67.82-48 4.4-48 4.4-25.74.63-22.92 35.16 5 28.26 5 28.26-7.54 4.27-3.14 15.17 7.22 9.64 7.22 9.64.94 14.76 11.93 25.43l-.63 22.29s-3.77 11.94-25.43 17.27-29.83 14.76-29.83 14.76 27 33 80.69 33c22.7-.03 50.6-48.01 50.6-48.01zM360 352.17c-9-3-13.8-6.47-16.36-9.42A104 104 0 0 0 371 335.5s-10-44.68-7-56.34l3-11.66s1-61.88-26.25-70.44c-33.53-16.64-48 4.4-48 4.4s-18 .44-22.24 20.76c-.38.71-14 26.5-10.52 43.76 3.5 17.5 9 64.5-3.5 69.5a262 262 0 0 0 31.25 6.19c-3.07 4-9.63 9.72-22.92 13 0 0 31.42 47.73 50.86 47.73 53.28 0 80.7-33 80.7-33A171.29 171.29 0 0 0 360 352.17zm-85.68-86.88a4.71 4.71 0 0 1 .58-.4c-.04.05-.25.58-.61.4z" transform="translate(-256.5 -154.16)"/><path d="M35.63 235.94a223.56 223.56 0 0 1 47.56-22.54c27.88-9.43 25-21.73 25-21.73l.08-27.06s-12.38-13.94-14.84-32.39c0 0-9.84-2.87-11.48-17.22s4.92-15.58 4.92-15.58-22.37-66.83 21.41-88.58 62.65 5.74 62.65 5.74 37.9 1.38 29.93 45.92c-6 33.65-8.42 37.4-8.42 37.4s10 2.3 6 19.3c-3.15 13.37-9.43 12.59-9.43 12.59s-1.23 19.27-15.58 33.21l.82 29.11s4.92 15.58 33.21 22.55 38.95 19.26 38.95 19.26-35.26 43.65-105.37 43c-69.6-.52-105.41-42.98-105.41-42.98z" fill="#3c3c3b" stroke="#fff" stroke-miterlimit="10" stroke-width="5"/></svg>