<svg xmlns="http://www.w3.org/2000/svg" viewBox="0 0 223.82 223.82"><path d="M223.81 111.91A111.91 111.91 0 1 1 111.91 0a111.9 111.9 0 0 1 111.9 111.91z" fill="#cac9c9"/><path d="M112.73.48a110.62 110.62 0 0 0-39.49 7.25.61.61 0 0 1 0 .27c-.06.41-.35.63-1.24.91a3.66 3.66 0 0 0-1.46.78c-.4.54-.67.52-1.05-.09l-.15-.3c-2.34 1-4.62 2.07-6.87 3.21h.13a18.92 18.92 0 0 0 2.29-.45c1.09-.34 1.2-.33 1.2.11 0 .2-.38.59-.84.86a3.4 3.4 0 0 0-.84.61 3.85 3.85 0 0 0 .4.81c.35.6.37.78.09 1.3-.18.34-.26.69-.17.78a4.2 4.2 0 0 0 1.71-.38 4.72 4.72 0 0 1 1.79-.4c.5.31.24.85-.64 1.3s-2.12 1.6-1.82 1.78a8.28 8.28 0 0 0 1.45.28 2.24 2.24 0 0 0 2-.36 7.39 7.39 0 0 0 1.27-1.08 32 32 0 0 1 4-2.64 30.88 30.88 0 0 0 5.15-3.68c2.34-2.22 3.15-2.73 4.66-2.94a9.58 9.58 0 0 0 2.69-.9 13.17 13.17 0 0 1 3.38-1.08 21.13 21.13 0 0 0 2.67-.61 7.77 7.77 0 0 1 2.1-.26c1.27 0 1.43.05 1.43.48s.07.57 2.07.22c2.52-.44 2.7-1.57.21-1.32a3.27 3.27 0 0 1-1.8-.21l-.6-.33.6-.23 1.44-.39a6.44 6.44 0 0 0 1.38-.43 1.68 1.68 0 0 1 1.44 0 7.51 7.51 0 0 0 2.71.15c1-.08 2.9-.21 4.25-.28h1.38c1 0 1.1.1 1.26.53.25.65.7.88 1.71.88s1.85.39 2 .95a1.08 1.08 0 0 0 .88.65 1.38 1.38 0 0 1 1 .72 1.3 1.3 0 0 0 2 .45c.8-.53.67-.86-.56-1.44-1-.45-1.36-1.06-.72-1.1.85-.05 9.39 0 10.74.1 2.43.13 4.62.67 4.75 1.17a.86.86 0 0 0 .62.53 17 17 0 0 0 2.09.2 2.86 2.86 0 0 1 1.29 0 14.59 14.59 0 0 0 2.24-.12l.57-.12c0-.06.1-.1.24-.09a.94.94 0 0 1 .36.23h.05l.18.15.07.07.06.07.23.24c.17.19.33.36.44.51 1 1.23.11 1.33-4 .76-1.89-.27-4.07-.66-4.84-.86-1.61-.43-2.56-.47-2.56-.12a.41.41 0 0 0 .3.34l2.22.7c2.07.68 10.17 2 10.79 1.75s.48-1 0-1.35-.46-.73 0-.73h.2a11.28 11.28 0 0 1 3 1.7 1.87 1.87 0 0 1 .56.94c0 .45 1 .83 1.43.56a.74.74 0 0 1 .65 0c.25.07.51.24.51.39a.5.5 0 0 1 0 .13.76.76 0 0 1 0 .21c0 .74.51 1 2.42 1.21 1.42.16 1.48.2.78.38a4.18 4.18 0 0 0-1.64 1.22 5 5 0 0 1-1.64 1.29c-.56.19-.77.42-.83.89-.09.74.09 1.11 1.13 2.29l.26.31a.38.38 0 0 1 .26.13c.1.1.16.22.12.3l1.23 1.44c1.23 1.45 2.55 2.46 3 2.28s3.11 1.82 4.94 3.42l.37.36c.08 0 .15.1.15.18.24.26.5.56.76.89v-.07c.07-.06.18.06.26.27a1.54 1.54 0 0 1 .07.27l.6.83a.26.26 0 0 1 .24.23v.15c.26.4.49.78.68 1.12a.93.93 0 0 1 .22.42v.08c.17.38.88.88 2.42 1.69.55.25 1.17.56 1.83.92a13.41 13.41 0 0 0 2.11.85h.28l.11-.05.14-.1a.53.53 0 0 0 .13-.43.88.88 0 0 0 0-.16v-.12l-.1-.23v-.06l-.15-.28a4.13 4.13 0 0 1-.44-1 .48.48 0 0 1-.06-.3v-.11a.54.54 0 0 1 .18-.45.1.1 0 0 1 .05 0 .45.45 0 0 0 .09-.5.73.73 0 0 1 .27-.56l.05-.08.07-.09c.07-.15 0-.32-.14-.59l-.07-.1.09-.14-.51-.54-.76-.83a2.91 2.91 0 0 0-1-.66 3.37 3.37 0 0 1-1-.47 8.06 8.06 0 0 0-1.08-.67 14.35 14.35 0 0 1-2.31-1.91 12.3 12.3 0 0 0-2.7-2.06l-.37-.18-.32-.19a1.6 1.6 0 0 1-.58-.51v.02a.41.41 0 0 1-.06-.33v-.06h.11a3 3 0 0 1 1.31.66l.08.05.24.17a12.15 12.15 0 0 1 1.12.92 6.55 6.55 0 0 0 1.91 1.43l.51.21.22.07.33.11.66.19c1.36.39 1.56.4 1.88.08l.08-.09a1.14 1.14 0 0 0 .17-.81l-.07-.16-.2-.36a9.71 9.71 0 0 0-1.43-1.91 2.83 2.83 0 0 1-.59-.73.29.29 0 0 1-.11-.11 1 1 0 0 1-.12-.45 3.46 3.46 0 0 1 0-1.48 3.45 3.45 0 0 1 .12-.61l.06-.22c0-.19-.05-.29-.18-.32h-.08a.36.36 0 0 0-.19.05.29.29 0 0 0 0 .24.32.32 0 0 1-.08.35l-.06.05a.6.6 0 0 1-.16.08h-.18a.74.74 0 0 1-.56-.17 27.32 27.32 0 0 1-1.79-2.15c-1.36-1.77-1.88-2.1-1.88-1.24 0 .28-.15.33-.66.21-.85-.22-1.26-.57-1.12-.95s-.52-1-1-.78a.48.48 0 0 1-.29 0h-.13a.24.24 0 0 1-.08-.09 1.13 1.13 0 0 0-.29-.24 2.69 2.69 0 0 0-.45-.22c-.52-.2-.6-.33-.3-1.18l.15-.41c0-.09 0-.18-.16-.26h-.11l-.49-.15-.33-.07c-.31-.09-.53-.2-.53-.28a1 1 0 0 1 .51-.93h.25c.12 0 .2-.1.2-.19a.24.24 0 0 0 0-.12.8.8 0 0 0-.09-.14 3.2 3.2 0 0 0-.49-.48l-.18-.13-.17-.09h-.13l-.33-.15-.24-.15-.24-.18-.28-.23-.13-.14A110.64 110.64 0 0 0 112.65.77zM95.65 6.22c-.62 0-1.22.24-1.22.5s.37.28 1.14.07.7-.57.08-.57zm57.68 1.88c.47.32 1.86 1.05 3.9 2.05a5.36 5.36 0 0 1 1.39.86 4.83 4.83 0 0 0 1.93.24c-2.38-1.09-4.79-2.15-7.24-3.11zm-.76.79c.43 0 1.26.32 1.26.57s-.27.34-.59.28l-.21-.05a1.36 1.36 0 0 1-.4-.2c-.26-.19-.39-.43-.29-.53a.45.45 0 0 1 .23-.07zm-25.95.83a1 1 0 0 0-.54.12c-.56.34.26.94 1.28.94.77 0 .93-.08.86-.42s-.95-.64-1.6-.64zm1.95 1.31a.37.37 0 0 0-.23.07c-.23.24.44.88.92.88a.4.4 0 0 0 .45-.35c-.06-.25-.75-.59-1.16-.56zm32.07.26l-.27.27-.54.54.53.08a8.38 8.38 0 0 1 2.21 1.69l.62.58a5.06 5.06 0 0 0 3.1 1.56h.2l.19-.05c.57-.18 1.63.18 3 .94a4.91 4.91 0 0 0-2.2-.74.71.71 0 0 0-.41.13 2.53 2.53 0 0 1-1.4 0c-1.19-.19-1.52.1-.81.69a11.34 11.34 0 0 0 3.68.81c.91.07 1.4.65 1.6 1.89a1.31 1.31 0 0 0 1 1.26c.46.19.83.46.83.59s.22.3.48.39a4.34 4.34 0 0 1 1.15.69c.93.77 1.43.9 1.85.48.2-.2.48-.29.62-.2s.19.23 0 .42a1.23 1.23 0 0 0-.26.83c0 .72-.41 1.49-.79 1.49-.16 0-.49-.27-.74-.6a1.39 1.39 0 0 0-1.08-.59h-.63l.58.44c.39.3.54.61.45.94s0 .45.28.37a.78.78 0 0 1 .72.27 1.68 1.68 0 0 0 1.14.37c.66 0 .81.09.75.42-.1.5-1.49.72-2 .31-.22-.19-.37-.2-.48 0a.49.49 0 0 0 .4.73 4.62 4.62 0 0 1 1.28 1c.56.57 1.21 1.2 1.46 1.41 1.18 1 1.9 2.72 1.3 3.09-.2.13-.15.55.21 1.59.41 1.21.57 1.43 1.21 1.59a1.87 1.87 0 0 0 1.44-.17l.25-.13a1.48 1.48 0 0 0-.09 1c.1.57.1.82-.05.9H181.06a.67.67 0 0 1-.37-.33l-.08-.15-.1-.11a.4.4 0 0 0-.25-.11H180.11a2.35 2.35 0 0 1-.57-.55v-.05a3.06 3.06 0 0 1-.54-.9l-.12-.3a4.29 4.29 0 0 0-.35-.5c-.11 0-.22.11-.3.34a.62.62 0 0 1-.53.36c-.3 0-.35.16-.23.71s.05.75-.35 1l-.19.09a.38.38 0 0 1-.64-.05.34.34 0 0 1 .06-.34l.1-.19a2.08 2.08 0 0 0 .13-.26v-.09a.21.21 0 0 0 0-.14h-.05l-.14-.08-.17-.12h-.06l-.22-.19v.15l-.31-.5-.35-.37h-.09l-.27.66-.34.78v-.08c0 .14.08.3.31.52l.45.34.48.39.94.71.31.21c-.07-.12 0-.06.27.15a1.51 1.51 0 0 1 .42.42c0 .09 0 .1-.11.07a3.9 3.9 0 0 1 0 1.09c-.12 1.24-.09 1.34.75 2.17a3.22 3.22 0 0 0 .86.68h.9a2.45 2.45 0 0 1 .43-.06 1.42 1.42 0 0 0 .62-.27l.11-.11v-.07a.94.94 0 0 0 .09-.12 1.81 1.81 0 0 0 .22-.39c-.08.6-.51 1.12-1 1-.29 0-.52 0-.52.18a.25.25 0 0 0 .23.26c.07 0 .14.06.18.16a.21.21 0 0 0-.12-.11h-.13a1 1 0 0 0-.16.4v.07a3.5 3.5 0 0 0 0 .65c0 .64 0 .87-.09.78a2 2 0 0 0 .43 1.52 1.34 1.34 0 0 1 .2.29 4.29 4.29 0 0 1 .48 1.27l.05.31v.25a.86.86 0 0 1-.41.9l-.52.42.53.46.19.17a1.06 1.06 0 0 1 .29.42c.07.17 0 .31-.1.34a1.2 1.2 0 0 1-.34.25 1.15 1.15 0 0 0-.47 1c0 .62.19.94.7 1h.95c.85-.1 1.2 0 1.44.26a1.28 1.28 0 0 0 .68.38h.34a2.55 2.55 0 0 1 .55.21l.32.19.32.21.33.24.09.07-.08-.12.54.5.12.11.15.15.09.08.07.07c.8.76 1.31 1.46 1.23 1.69V59.18c0 .33-.33.8-1.1 1.56a14.22 14.22 0 0 1-2.24 2 1.45 1.45 0 0 0-.61 1.22 1 1 0 0 1 0 .55v.12a.9.9 0 0 0 .39.77l.15.09.12.08a2.06 2.06 0 0 1 .66.54 1.7 1.7 0 0 0 .86.6h.09a.11.11 0 0 1 0 .08.16.16 0 0 1 0 .09.17.17 0 0 0 0 .14 1.64 1.64 0 0 0 .49.69l.11.11.09.11.09.12.08.13.07.13a.93.93 0 0 1 .11.38 1.19 1.19 0 0 0 .28.71l.08.07.1.08c.15.11.22.08.24-.13a2.23 2.23 0 0 0 0-.3 1.91 1.91 0 0 0 .16.92c.08.09.24.18.33.15l-.13.1c-.35.25-.37.39-.12.92a1.82 1.82 0 0 0 .15.27l.1.12a1.53 1.53 0 0 0 .57.45h.06c.16 0 .43.24.66.56a3.1 3.1 0 0 1 .18.26.3.3 0 0 0 0 .08c.28.39.54.52.76.39l.07-.07.08-.08.06-.12a.52.52 0 0 0 .06-.13l.06-.15v-.17c-.15 1.11.31.88.77 0 0 .09.13.15.3.15a1 1 0 0 1 .63.36 1.43 1.43 0 0 0 .29.28.26.26 0 0 0 .18.05c.11-.07.2-.29.28-.64 0 .29 0 .45.14.45s.26-.19.26-.42a6.59 6.59 0 0 1 .16-1c.08-.33.08-.45 0-.43s-.05 0-.09.06a3.33 3.33 0 0 1 .24-.39l.1-.15.08-.15.08-.18c.05-.13.09-.26.13-.39v-.06a3.36 3.36 0 0 0 .08-.71 1.66 1.66 0 0 1 0-.24.17.17 0 0 0 .12.06.23.23 0 0 0 .24-.23.52.52 0 0 0-.24-.37l.05-.1.09-.3a.75.75 0 0 0-.1-.77.38.38 0 0 1-.09-.09.7.7 0 0 0-.56-.18h-.11a.49.49 0 0 0 .07-.25c0-.2-.11-.37-.25-.37a.2.2 0 0 0-.16.1 1.2 1.2 0 0 1 .28-.34c.55-.45.44-.92-.27-1.25a1.42 1.42 0 0 0-.54-.17l-.17.15a.5.5 0 0 1-.48.29c.27 0 .29-.25.23-.95s-.28-1.05-.42-1-.1.14-.1.39a.9.9 0 0 1-.5.62c-.38.2-.43.33-.23.58l-.1-.09-.22-.26-.05-.08a.09.09 0 0 1 0-.12h.39a1.11 1.11 0 0 0 .29-.08l.07-.05v-.08a2.43 2.43 0 0 0 .09-.58 2.3 2.3 0 0 1 .11-.57 1.77 1.77 0 0 0-.25-1.08l-.08-.14-.08-.17h.11a.64.64 0 0 0 .24-.5c0-.19-.11-.34-.24-.34a.17.17 0 0 0-.14.09 1.12 1.12 0 0 0 0-.26v-.07h-.26a.27.27 0 0 1 .2 0c.37.24.31-.62-.09-1.15-.12-.15-.21-.25-.32-.26s-.27.1-.51.32a3 3 0 0 0 .7-.92.14.14 0 0 0 0-.06l-.05-.08a2.5 2.5 0 0 0-.54-.4 2 2 0 0 1-.6-.36l-.12-.11a1.91 1.91 0 0 0 .15-.85 1.5 1.5 0 0 1 .63-1.4c.59-.48.62-.56.34-1.39-.19-.6-.3-.78-.58-.78h-.35.08c.19-.13.24-.4.24-1.05v-.06l.35-.32a2.11 2.11 0 0 1 1.47-.45c.63 0 .89 0 .9-.19 0 .1 0 .17-.18.26s.17.17.92.18a.63.63 0 0 0-.48.34c-.16.29-.13.46.07.54a10.67 10.67 0 0 0 3.39 0c.09-.09 0-.22-.25-.35h.51c.09-.06.09-.18 0-.37s-.06-.16-.09-.25c.25.27.69.24.69-.14a.82.82 0 0 0-.67-.75.16.16 0 0 0-.14.09.24.24 0 0 0 0 .07v-.05a.36.36 0 0 0-.13-.19l-.14-.06a1.55 1.55 0 0 0-.29 0h-1.76a.21.21 0 0 1-.19.1 2.29 2.29 0 0 1-.71-.33l-.25-.14a5 5 0 0 0-1.81-.59 4 4 0 0 0-.86-.06h-.16a.85.85 0 0 0-.57.36.86.86 0 0 0 0-.72 2.22 2.22 0 0 1-.17-1 2.87 2.87 0 0 0-.21-1.19c.16.25.32.33.77.3H191.54l.62-.07h.47c-.84.47-.11.77 2 .8a6.23 6.23 0 0 1 2.37.32c.21.18.43.22.54.12s.13-.06 0 .1.09.65.38 1.11c.64 1 1.88 1.3 2.48.64s.42-.75-.45-.59h-.15a.56.56 0 0 0 .41-.33c.11-.35-.67-.75-1.15-.7l-.2.06-.08.06-.11.15a.19.19 0 0 0 0 .15c0 .1.07.2.19.34l.1.1c-.27-.16-.4-.4-.25-.65s0-.36-.22-.52c-.5-.42-.44-.88.19-1.51a1.4 1.4 0 0 0 .45-1 1.25 1.25 0 0 0 .38.45c.36.27.66.38.75.29.26.81.43.95 1.37 1.2s1.13.45 1.33 1 .42.95.61 1.31a2.39 2.39 0 0 1 .3 1.08c-.13 1.32 0 2 .48 2a.69.69 0 0 1 .6.38c.11.3.22.32.47.11.57-.47.92.32 1.3 2.87l.16 1-.09.18a.83.83 0 0 0-.09.28.48.48 0 0 0 0 .12.31.31 0 0 0 .13.25h.22a1 1 0 0 0-.49.46c-.42.79-.29 1.44.35 1.73.43.2.7.64 1 1.63a3.75 3.75 0 0 0 .9 1.86l-.4.42a3.48 3.48 0 0 1-.5.41.77.77 0 0 0 .06-.24c0-.34-.1-.52-.33-.51a.84.84 0 0 0-.6.37c-.26.31-.26.42 0 .6l.14.08a.33.33 0 0 1-.4-.36c0-.43-.76-.2-.88.27a1 1 0 0 1-.76.61c-.76.16-1.14.36-1.29.7a.64.64 0 0 0-.06.18 1.52 1.52 0 0 0 0 .21v.12a1.21 1.21 0 0 1 .23-.77c.2-.25.14-.53-.24-1.18a3.63 3.63 0 0 1-.5-1.18.62.62 0 0 0-.43-.48c-.16-.07-.26-.1-.27-.08s0 0 0 .06a.3.3 0 0 0-.38-.06l-.06.06a.41.41 0 0 0-.05.09 1.41 1.41 0 0 0-.42-1.43q-.25-.21-.39-.18c-.19 0-.17.39.13.9v-.05a2.15 2.15 0 0 1-.32-.86 1.84 1.84 0 0 0 0-.25.78.78 0 0 0-.2-.33c-.13-.06-.27 0-.36.29a.81.81 0 0 0 0 .16 2 2 0 0 1-.24.8 18 18 0 0 1-.75 2.06 5.9 5.9 0 0 1-.43.82.68.68 0 0 1-.15.19 3.35 3.35 0 0 0-.55 1.42l-.18.81a22.75 22.75 0 0 0-.45 3.58c0 .46 0 .8-.06 1.07a.39.39 0 0 1 .16.34c0 .19-.11.36-.24.36h-.09a4.2 4.2 0 0 1-.9 1.07l-.71.65c.06.11 0 .22-.15.31a2.11 2.11 0 0 1-.91-.13l-.27-.08c-.15.12-.13.45.11.9l.1.16V75.99l.07.13v.14a2.2 2.2 0 0 1 .17.9c0 .27.06.57.07.88.12 0 .22.27.22.57a1 1 0 0 1-.24.74c0 .4-.06.79-.12 1.16a8.14 8.14 0 0 0 0 2.13c.08.37.16.79.23 1.26v.17c.2.82.46 1.47.7 1.55h.15a.56.56 0 0 0 .3-.13.82.82 0 0 0-.08.9l.23.6.31-.75.17-.34c.29-.56.6-.8.75-.54a5.37 5.37 0 0 1-.08 1.23 6.13 6.13 0 0 0 0-.89v-.25a.19.19 0 0 0-.09-.12c-.05 0-.11 0-.2.08l-.09.08-.05.05-.15.23-.07.13a1.82 1.82 0 0 0-.16.43 2 2 0 0 0-.05.26 4.18 4.18 0 0 0-.06.56v.7a4.57 4.57 0 0 1-.15 2.17 6.85 6.85 0 0 1-.76 2.5 4.87 4.87 0 0 0-.36 2.28v.94c.32-.39.32-.08 0 .88v2.48c.26 1.48.24 2.18 0 1.66v3a12.38 12.38 0 0 1 0 1.49v.05c0 1.33.07 2.39.11 2.59a1.9 1.9 0 0 0 .7.92h.06l.09.06.18.12.16.12.12.12.1.12.07.14a1.49 1.49 0 0 1 .08.55 2.79 2.79 0 0 0 .47 1.41 6.56 6.56 0 0 1 .41.67l.18.35.13.31.08.22a23.06 23.06 0 0 1 .65 4V117.72a5.78 5.78 0 0 1 0 .59c0 .74 0 1.05.12 1.18-.55 0-.54.58.09 1.11a1.74 1.74 0 0 1 .48 1.43 2.5 2.5 0 0 0 1.51 2.44c2.86 1.77 3.28 2.14 3.43 2.93a6.1 6.1 0 0 0 2.43 3c.44.22.5.36.31.73 4.34 3.89 8.69 7.42 13 6.22a111.1 111.1 0 0 0-12.39-82.73 111.7 111.7 0 0 0-15.4-20.09 6.73 6.73 0 0 1 .46.86c.23.55.38.76.7.83H194.25c-.68 0-.64.36.14 1.4 1.53 2 1.89 3.24 1 3.51-.58.18-1 0-1-.5s-.69-1.09-2.62-2.79a8.82 8.82 0 0 1-2.24-2.88.66.66 0 0 0-.53-.42c-.41 0-.5-.61-.13-.85s.28-.71-.28-1c-.38-.16-.6-.53-.71-1.2a6.45 6.45 0 0 0-.61-1.86 2.65 2.65 0 0 0 .29.29 2.21 2.21 0 0 0 .47.34c.15.07.28.09.35 0l-1.45-1.33v.08l-.12-.18a111 111 0 0 0-26.16-17.5zm-81.52 1.75a.88.88 0 0 0-.77.89c0 .48.7.61 1.15.16s.36-.83-.1-1a.66.66 0 0 0-.28 0zm53 1.76a.8.8 0 0 0-.32.1c-.57.32-.51 1 .2 2.06a2.41 2.41 0 0 0 1.6 1.15 19.26 19.26 0 0 0 4.69.15c.52-.07.33-.49-.4-.87-.5-.26-.66-.49-.57-.82.17-.68-.55-1-1.93-.76-1 .15-1.23.1-1.56-.25a2.3 2.3 0 0 0-1.71-.76zm25 .54a.82.82 0 0 1 .44.11.61.61 0 0 1 .24.58 2.48 2.48 0 0 1 0 .29c0 .61-.09.7-.69.7a1.82 1.82 0 0 1-.84-.15.56.56 0 0 1-.07-.23 2.55 2.55 0 0 1-.05-.44v-.11a.62.62 0 0 1 .51-.57 1.31 1.31 0 0 1 .47-.12zm6.2 1.44c-.14 0-.19.11-.11.24s.2.24.26.24.1-.1.1-.24a.25.25 0 0 0-.29-.2zm7.92 1.07c.76.53 1.58 1.14 2.44 1.84a5.2 5.2 0 0 0 .79.55l.35.15h.15a2.35 2.35 0 0 1-1.62-.94 17.06 17.06 0 0 0-2.11-1.65zm-5.16.65h-.19a.47.47 0 0 0 0 .72.41.41 0 0 0 .68-.33.51.51 0 0 0-.42-.43zm-93.48.24c-.31 0-.76.26-1.71.92a7.7 7.7 0 0 1-1.6 1 3.62 3.62 0 0 1-1.07-.48l-.81-.48-1.29.91c-1.05.73-1.33 1.06-1.44 1.74-.25 1.52-.76 1.83-1.57.94-.39-.43-.61-.48-1.65-.33a7 7 0 0 0-1.93.55 3.53 3.53 0 0 1-1.42.39c-.75 0-.9.2-1.36 1.74a2 2 0 0 1-1.16 1.46c-.78.4-.88.57-1.07 1.78s-.3 1.39-.88 1.63-2.78.1-3-.27a.7.7 0 0 0-.54-.22 8.7 8.7 0 0 1-1.84-.71c-.81-.39-1.54-.6-1.65-.49-.37.35 0 1 .87 1.32a4.63 4.63 0 0 1 1.42 1c.65.72 1.26.94 3.16 1.06l.92.06-.51.65-.51.65.5.26a1.66 1.66 0 0 0 2-.9 1.43 1.43 0 0 1 .73-.69 2.84 2.84 0 0 0 .9-.52c.5-.44.85-.21.43.3s-.2.73 1.28 1.43 1.41.7 1.71 3.38a11.88 11.88 0 0 1-1.82 5.63 7.52 7.52 0 0 0-.87 1.68 7.9 7.9 0 0 1-.59 1.45c-.49.93-.57 1.58-.2 1.81s.25 1.1-.35 1.81a6.08 6.08 0 0 0-.88 2.09c-.42 2-1.13 3.53-1.73 3.79s-.53.4-.54 2.62a13.19 13.19 0 0 1-.21 2.84 2.49 2.49 0 0 0-.06 1.22v.43a.15.15 0 0 1 .1.15c0 .08 0 .08-.05.13a.76.76 0 0 1-.3.22h-.06l-.25.15a5.08 5.08 0 0 0-.94 1.15c.09 0 0 0-.2.34l-.1.14a10.54 10.54 0 0 1-.61.94l-.26.3c0 .06-.12.2-.29.35l-.43.54-.1.13-.38.53c-.48.67-.65.85-.7.72l-.41.43a5.66 5.66 0 0 0-1.06 1.43 1.45 1.45 0 0 1-.23.62l-.06.1a.55.55 0 0 0 0 .33.69.69 0 0 0 .21.13l.19.07h.05l.17.08.1.06a.8.8 0 0 0-.31-.12h-.09c-.2 0-.31.14-.31.42s.12.44.47.35a.62.62 0 0 0-.44.34v.07a.37.37 0 0 0 0 .23l.05.07.07.07a.57.57 0 0 0 .18.12l.12.05h.28l.13.06c.51.29 0 .85-1 .88a2.5 2.5 0 0 0-.76.15l.32-.14a1 1 0 0 0 .57-1.34.14.14 0 0 0-.13-.05c-.27 0-.85.63-1.14 1.15v-.07l.06-.1.06-.1.1-.17v-.11a.3.3 0 0 0 0-.28l-.15-.07a.71.71 0 0 1-.15-.07c-.39-.06-.7.33-.7.94a1.8 1.8 0 0 1 0 .22.74.74 0 0 1 0 .12l-.05.23a4.82 4.82 0 0 1-.36 1 23.27 23.27 0 0 0-1.11 5.14.48.48 0 0 1 0 .46c0 .13-.09.14-.12.05a32.41 32.41 0 0 0-.28 3.7c0 1 0 1.23.41 1.41h.15c-.1 0-.06.16.1.36s.36.31.42.25a.22.22 0 0 0 0-.26.24.24 0 0 1 .06.11.33.33 0 0 1 0 .14h-.17a.9.9 0 0 1-.42-.22l-.11-.09-.06-.06c-.37-.31-.85-.17-.85.28 0 .19.22.34.51.34.59 0 1.41.63 1.41 1.08a2.9 2.9 0 0 0 .32.93c.07 0 .16.13.23.38s.06.49 0 .48a2.09 2.09 0 0 1-.06.56 12.19 12.19 0 0 0-.11 1.53 1 1 0 0 1 0 .6v.94a.48.48 0 0 1 0 .44v.72a.38.38 0 0 1 .06.27 2.32 2.32 0 0 1-.19 1.33 1.49 1.49 0 0 0 .19 1.45 2.76 2.76 0 0 1 .49 1.44 3.13 3.13 0 0 1 .05.49c0 .83-.06.93-.73 1.06s-.73.19-.58 1a5 5 0 0 0 1.61 2.76l.06.06c0-.1.07 0 .25.23l.11.16.07.14v.07c.15.34.2.67.06.67v-.05.23a3 3 0 0 1-.38 1.12 2 2 0 0 0 .27 2.18 8.41 8.41 0 0 1 1.57 3c.26.91.94.56 1-.54a2.21 2.21 0 0 0-.46-1.67c-.46-.62-.53-1.05-.57-3.14a11.48 11.48 0 0 0-.33-2.94 10.3 10.3 0 0 1-.28-2.84c0-2-.07-2.41-.48-2.92-.55-.7-.59-1.2-.2-2.5.19-.63.42-.93.71-.93.76 0 1 .86.91 3.56-.05 2.34 0 2.68.59 4a7.22 7.22 0 0 1 .64 1.87 4.35 4.35 0 0 0 .49 1.45 2.47 2.47 0 0 1 .34 1.66c-.11.53.09 1.16.89 2.73l1.67 3.32.43.84.21.4v-.08a2.43 2.43 0 0 1 .39-.01l.05-.09a3 3 0 0 0 .11-.39 1.32 1.32 0 0 1-.1.39 1.41 1.41 0 0 0 .33 1.65h.1-.23c-.12.13-.15.56-.16 1.5a4.07 4.07 0 0 1-.36 2.1 2.81 2.81 0 0 0 0 2.75 1 1 0 0 0 .46.42h.7c-.29.11-.31.21-.09.48a.7.7 0 0 0 1 .07l.08-.13a.26.26 0 0 0-.06-.25c.1.09.08.18-.06.34l-.09.11a.13.13 0 0 0 0 .05l-.14.17a.36.36 0 0 0 0 .11.58.58 0 0 0 0 .26v.06c.06.06.07.1 0 .11a1 1 0 0 0 .19.33l.11.12.14.12.16.12.17.1a2.82 2.82 0 0 0 .58.26l.15.05.23.08-.47-.13c-.57-.14-.6-.12-.3.24a1.17 1.17 0 0 0 .79.4 2.07 2.07 0 0 1 1.08.62 1.64 1.64 0 0 0 .7.49l-.07.05h-.07c-.32.2-.32.26 0 .55a4.48 4.48 0 0 0 .92.48h-.13a18.73 18.73 0 0 0 3.62 2.61 3.34 3.34 0 0 1 .4.25 1 1 0 0 0-.56-.21h-.11c-.14.24.66 1.09 1.05 1.09h.09a.37.37 0 0 0 .15-.16 1 1 0 0 0 .68.57 2 2 0 0 1 .86.5 2.2 2.2 0 0 0 2.38-.21c.27-.42-.18-.55-.63-.18a.73.73 0 0 1 .43-.26h-.08c.2 0 .35 0 .26.21a.6.6 0 0 1 0 .2v.25a1.22 1.22 0 0 0 1 .48c.28 0 .42 0 .47-.13a1.5 1.5 0 0 1-.09-.49l-.06-.12c0-.18.08-.24.21-.21.07 0 .21.12.36.28a.92.92 0 0 0-.43-.22h-.12c-.1.1 0 .35.28.53.45.33.74.41.75.27.81 1.13 1.62 2 1.9 2-.11 0-.06.2.13.41a3.54 3.54 0 0 1 .52.85 2.2 2.2 0 0 0 .89.84c.4.22 1.29.81 2 1.3l1.28.9a2.44 2.44 0 0 0-.12-.59l.06.12v.06a2.08 2.08 0 0 0 .91.72 2.83 2.83 0 0 1 .89.55h.05l.38.2.58.28h.2a5.85 5.85 0 0 1 1.5 1.72l.5.57.28.35c.8 1 1.5 1.89 1.39 2a4.17 4.17 0 0 1 .28 1.31 2.2 2.2 0 0 0 .55 1.41l.17.17a1.28 1.28 0 0 0 .78.35l.5.1.37.12h.1l.33.15.13.06h.05a.94.94 0 0 1 .54.36.58.58 0 0 1 .14.25.43.43 0 0 1 .06.36v.12c.11 1.19 1.18 1.86 2.7 1.68l.51-.05c-.1-.09 0-.11.24-.12h.2a.31.31 0 0 1 .12 0 .24.24 0 0 1 .1.15.55.55 0 0 1 0 .09.41.41 0 0 1 0 .12 1.15 1.15 0 0 1-.28.7c-.36.36-.22.46 1 .6-.05-.06.05 0 .29 0h.22l1.63.18-.14-.81a1.83 1.83 0 0 1 0-.55c-.06 0-.1 0-.1-.09s.16-.31.36-.39c.11-.09.26-.19.45-.32l.45-.24c.12-.21.47-.28.85-.25H95.55a.92.92 0 0 1 .43.18c.26.12.45.3.45.5s0 .16-.08.19a1.27 1.27 0 0 1 0 .28 2.72 2.72 0 0 0 .66 1.46 4.59 4.59 0 0 1 .46.56 2.52 2.52 0 0 1 .38.63v.13a.71.71 0 0 1 .07.27 10.72 10.72 0 0 1 .1 1.43c.12 4.29.09 4.6-.55 5.11l-1.15.95-.58.5a2.39 2.39 0 0 0-.69.87v.18a.51.51 0 0 1-.39.24 1.75 1.75 0 0 1-.32.12c-.82.2-1.22.51-1.16.87.21.09.07.48-.43 1.28l-.51.66c-.11.13-.21.26-.33.38a1.23 1.23 0 0 0-.19.32 1 1 0 0 1 0 .21 2.41 2.41 0 0 0 .34 1.21v.05l.06.12a3 3 0 0 0 .73 1c.22.09.23.3.11.54s-.17.45-.34.45l-.14.1c-.7.47-1.56 1.37-1.56 1.64 0 0 .06.08.15.11s.28 0 .49 0h.1a.89.89 0 0 1 .7 0c.23.14.28.28.18.39a.14.14 0 0 0 0-.09.64.64 0 0 0-1.08 0c-.05.16.14.3.54.3h.2l-.32.07h-.25l-.17.09a.59.59 0 0 0-.13.84 1 1 0 0 1 .1.27 1.2 1.2 0 0 1 0 .47v.34a.29.29 0 0 0 0 .09.31.31 0 0 0 0 .1l.07.1a2 2 0 0 0 .45.31 3.62 3.62 0 0 0 .81.32h.22a.42.42 0 0 0 .41-.16.36.36 0 0 0 0-.11.71.71 0 0 0 .33.53c.25.21.4.19.63-.09a1.11 1.11 0 0 1 .59-.36c-.74.29-1 .94-.57 1.3l.15.15a3.14 3.14 0 0 1 .45.6 2 2 0 0 0 1 .71l.22.08h.05-.18l-.48-.08c-.35 0-.25.14.2.7q.9 1.14.93.15v.3a1.93 1.93 0 0 0 0 .26 1.35 1.35 0 0 0 0 .38l.05.15a.72.72 0 0 0 .44.34 1.13 1.13 0 0 0-.34-.09c-.12 0-.11.1 0 .31a3 3 0 0 0 .38.71c.36.46.69.34.6-.22a.36.36 0 0 0 0-.11 2.9 2.9 0 0 1 .15.57 3 3 0 0 0 .45 1.18h.05a.35.35 0 0 0-.26-.1c-.09 0-.1.15 0 .36a.57.57 0 0 0 .42.25c.12 0 .13-.07.06-.21a.76.76 0 0 1 .13.31 3.3 3.3 0 0 0 .78 1.11c.47.51.67.69.78.6v-.19c0-.08 0-.14.06-.2s0 .09 0 .14a.44.44 0 0 0 .48.37.44.44 0 0 1 .25.83c-.18.11-.05.47.19.84-.29-.28-.82-.34-1 0s.11.63 1.15 1.46a3.27 3.27 0 0 0 1.46.74h.2l.16.05h.06c.07 0 .1.08.1.13 0 .38 1.11.55 1.66.25a1.22 1.22 0 0 1 .24-.11.49.49 0 0 0-.22.36.24.24 0 0 0 .24.23c.13 0 .24-.17.24-.38a.28.28 0 0 0-.08-.22c.13 0 .21.18.32.47s.44.63.69.58h.08a.57.57 0 0 0 .13-.1.77.77 0 0 0 .16-.25v-.06a.74.74 0 0 0 .05.35c.12.33.67.44.77.21a.88.88 0 0 1 0 .16.43.43 0 0 0 .47.45 2.3 2.3 0 0 1 1.17.59c.74.63 1.24.77 1.24.36 0-.15.17-.23.41-.23-.7.08-.45.68.58 1.33a5.1 5.1 0 0 1 .59.41.23.23 0 0 0-.17-.06c-.16 0-.16.32.08.7s.31.44.37.23v.18c-.11.68-.08.79.25.7l-.12.08a.56.56 0 0 0-.29.4c0 .35.06.39.48.24l-.12.06c-.33.15-.6.37-.6.48 0 .41.3.48.87.22h.12l-.19.1c-.37.21-.58.37-.66.56v.08a.29.29 0 0 0 0 .09.34.34 0 0 0 0 .1 1.43 1.43 0 0 0 .19.48l.18.32.18.3c-.37-.6-.59-.61-.78 0a1.06 1.06 0 0 0 .37 1.2l-.11-.09-.1-.11-.08-.11c-.21-.31-.39-.46-.54-.46s-.31.26-.32.73v.5a.94.94 0 0 0 .46.36l.23.09c-.42 0-.58.13-.43.52a.74.74 0 0 1-.12.67 2.57 2.57 0 0 0-.36 1 5.63 5.63 0 0 1-1.14 2.65 1.09 1.09 0 0 0-.33.9c.14 6.14 11.28 11.51 16.91 13.29a111 111 0 0 0 17.87-3.82c12.13-7.16 22.11-22.12 24.19-35 .5-2.45.5-2.47 1.81-3.7a5.08 5.08 0 0 0 1.3-1.62 18.74 18.74 0 0 1 3.1-4 6.42 6.42 0 0 0 1-1.71 5 5 0 0 0 .39-3c-.19-2-.51-2.45-1.51-2.1h-.15a1.74 1.74 0 0 0 .43-.25c.13-.13.07-.22-.16-.22a1.6 1.6 0 0 0-1.05.34l-.08.09a.2.2 0 0 0 0 .1 4.54 4.54 0 0 1-2.29-.53 6.29 6.29 0 0 0-2-.63l.39.05h.38a1.84 1.84 0 0 0-.54-.37 6.86 6.86 0 0 0-1.37-.34h-.15a9.76 9.76 0 0 0-2.15.35c-.53.13-.82.3-.87.49a.25.25 0 0 0 0 .07.82.82 0 0 0 .34.37 1.63 1.63 0 0 0-1.6-.23h-.06a.45.45 0 0 0 .16-.36 1.73 1.73 0 0 0-1-.28.83.83 0 0 0-.38.07c-.17.11-.13.31 0 .48a.93.93 0 0 0 .43.22h-.41a1.23 1.23 0 0 0-1 .37.78.78 0 0 0 .12-.32 2.85 2.85 0 0 0-.54-.62.34.34 0 0 1-.23-.22l-.1-.1c-1.07-1-1.11-1-2.36-.87h-.62a2.26 2.26 0 0 1-1.28-.26c-.56-.32-.78-.33-1.64 0-.7.23-1 .5-1.14.89v.2c-.09.2-.22.36-.39.36a.44.44 0 0 1-.35-.15l-.06-.08v-.23a.5.5 0 0 1 .14-.27c.55-.55.29-.89-.69-.89-.83 0-1-.11-1.44-.77a3.27 3.27 0 0 1-.31-.73c-.11.12-.18 0-.18-.43a.62.62 0 0 1 .06-.26.57.57 0 0 1 0-.12 1.5 1.5 0 0 0-.7-1.5h-.27a1 1 0 0 1-.45-.37 2.38 2.38 0 0 1-.31-.52l-.07-.18c-.11.11-.15 0-.15-.41a.53.53 0 0 1 0-.13.62.62 0 0 1 0-.13V157.75a1.89 1.89 0 0 0-.44-.66l-.1-.09-.23-.19-.27-.2-.4-.3c-.31-.2-.67-.42-1.07-.65-.13 0-.33-.09-.64-.32a5 5 0 0 0-1.19-.36 1.21 1.21 0 0 1-.41 0l-1.3-.1c-1.83-.11-2.29-.08-2.66.22l-.11.14c-.3.3-.52.34-.7.15a2.85 2.85 0 0 1-.32-.1 1.43 1.43 0 0 0-.87-.12c-.12.07-.35 0-.63-.1h-.07l-.53-.26a6.1 6.1 0 0 1-1.34-1.08l-.17-.17-.16-.19a7.24 7.24 0 0 0-.77-.8l-.07-.07-.22-.17a4.71 4.71 0 0 0-3-.86 6.21 6.21 0 0 1-.82 0 .91.91 0 0 1-.27 0 .34.34 0 0 1-.31-.22.14.14 0 0 1 0-.11v-.05c0-.18 0-.26.1-.25a1.07 1.07 0 0 1 .24-.31c.39-.44.38-.48-.18-.9l-.12-.09a.3.3 0 0 1-.25-.17.12.12 0 0 1 0-.08c-.11-.15 0-.27.23-.55.76-.83.42-1.68-.55-1.38a.72.72 0 0 0-.48.73 1 1 0 0 1-1.17 1h-.13c-.23-.08-.34-.18-.35-.3 0-.07.05-.14.15-.24l.11-.09.25-.21c.52-.37.48-.38-1-.35a7.89 7.89 0 0 1-2-.14c-.29-.12-.52 0-.79.42-.65 1-1.53 1.22-2.9.75a6 6 0 0 0-2.53-.28c-1.49.14-1.81 0-2.22-.8a2.58 2.58 0 0 0-1.4-.93 5.66 5.66 0 0 1-1.61-.84c-.5-.45-.51-.45-.77.3a1.47 1.47 0 0 1-1.19 1c-1 .3-1.67.17-1.67-.32a.16.16 0 0 1 0-.09.15.15 0 0 1 0-.07.25.25 0 0 1 .24-.26h.08l.22-.13a.89.89 0 0 0 .54-.72c0-.68-1.2-.79-1.88-.17a6.52 6.52 0 0 1-3.25 1.49 1.27 1.27 0 0 0-.87.24 1 1 0 0 1-.74.24c-.8 0-1.71.95-1.91 2-.13.73-.35 1-1.43 1.53l-1.29.67-.93-.75a7.64 7.64 0 0 0-2.22-1.14c-1.25-.37-1.32-.36-2.79.22a12.3 12.3 0 0 1-1.72.6c-.53 0-3.18-2.2-3.89-3.24a2.4 2.4 0 0 1-.61-2.24c.08-.61.21-1.77.28-2.56a6.26 6.26 0 0 1 .14-.88.66.66 0 0 1-.05-.31.7.7 0 0 1 .22-.48h.1a1.27 1.27 0 0 1 .21-.29c1.51-1.63-1.44-4-5.33-4.29-2.24-.16-3.64-.43-3.76-.74a3.2 3.2 0 0 1 .47-1.46 23.53 23.53 0 0 0 2.31-6c0-.15.22-.33.46-.39.57-.15.9-1.59.46-2a4.76 4.76 0 0 0-3.38-.69c-2 .19-2.78.51-2.94 1.27a4.24 4.24 0 0 1-1.35 2.52 7.64 7.64 0 0 1-3.13.42c-2.29.05-2.64 0-3.12-.42a10.14 10.14 0 0 0-1.17-.87 2.5 2.5 0 0 1-.87-1.06l-.84-2.24a15.16 15.16 0 0 1-.78-3.38c-.18-1.95.15-3.26 1.65-6.46a7 7 0 0 0 .63-2.25 3.1 3.1 0 0 1 1.85-2.85l2.62-1.12a11.34 11.34 0 0 1 2.08-.74 17.33 17.33 0 0 1 4 1.89 2.33 2.33 0 0 0 1.44.42 1.57 1.57 0 0 1 1.05.21c.59.44.87.26.87-.58a1.32 1.32 0 0 1 .3-.91 7.1 7.1 0 0 1 2.34-.16c2 .07 2.05.1 2.78.93s1.17 1 2.12.56c.75-.34 1.11-.08 2 1.4.54.92.57 1.13.32 1.88-.35 1.06.16 2.76 1.34 4.56a18.27 18.27 0 0 1 1.08 1.86c.16.36.37.66.45.66.49 0 1-.76 1.33-1.92.42-1.58.16-3.67-.77-6.48-1.05-3.15-.55-4.94 1.81-6.51a11.29 11.29 0 0 0 1.72-1.43c-.07 0 0-.08.25-.32s.47-.38.53-.32 0 0 0 .06a2 2 0 0 1 .49-.19 1.44 1.44 0 0 0 .91-.48 3.22 3.22 0 0 1 2.15-1.09c.55 0 1.79-1.11 1.74-1.56 0-.13-.11-.86-.21-1.61a2.32 2.32 0 0 1 .55-2.39 3.76 3.76 0 0 0 .75-1.54 3.44 3.44 0 0 1 .8-1.5 8.92 8.92 0 0 0 1.1-1.67c.23-.56.53-.78 1.32-1a4.56 4.56 0 0 0 1.68-.88 1.78 1.78 0 0 1 1.66-.55c.82.07 1 0 1.08-.38a.93.93 0 0 0-.39-.84 2.11 2.11 0 0 1-.63-1.1c-.13-.58 0-.87.56-1.5a2.34 2.34 0 0 1 1.18-.78 2.21 2.21 0 0 0 1-.45 9.93 9.93 0 0 1 1.43-.88 1.07 1.07 0 0 1 .36-.2c.45-.25.79-.51.79-.63s.71-.58 1.81-.85c.77-.2.77.28 0 1a1.27 1.27 0 0 0-.25 1.91l.11.14.09.11a.21.21 0 0 0 .15 0h.11a4.65 4.65 0 0 0 .79-.7 4.77 4.77 0 0 1 1.12-.89s0 .07-.07.17l1.06-.55.12-.09a1.41 1.41 0 0 1 .61-.23A8.37 8.37 0 0 0 125.2 81c.78-.8.79-.81.42-1.72-.2-.51-.49-.92-.65-.92s-.53.49-.81 1.08c-.6 1.25-1.36 1.59-1.36.61 0-.54-.1-.61-.78-.62a2.33 2.33 0 0 1-1.2-.33 1.25 1.25 0 0 0-.93-.2c-.45.12-.48 0-.35-1.17a19.16 19.16 0 0 1 .28-1.91.86.86 0 0 0-.24-.92c-.61-.51-2.89-.17-4.51.66-1.42.73-1.91.64-.75-.14a13.88 13.88 0 0 0 1.69-1.47 2.92 2.92 0 0 1 2.12-1.17c.94-.11 1.12-.06 1.22.33.17.64 1.68 1.56 2.8 1.71.82.11.92.07.85-.31s-.47-.56-1.1-.77-1-.44-1-.56c0-.27-.05-.26 1.92-.32s2.47-.23 3.24-1.35c.65-.93 1.35-1.35 1.78-1.08.13.07.07.7-.14 1.51s-.41 1.65-.49 2a2.65 2.65 0 0 1-.47 1 1.9 1.9 0 0 0-.27 1.31l.08.93h2.15c1.7 0 2.16.07 2.17.34 0 .59.51.54.92-.09a1.44 1.44 0 0 1 .44-.47.35.35 0 0 1 .27-.06 1.58 1.58 0 0 1 1 .45l.37.26a.36.36 0 0 1 .19.15 1 1 0 0 0 .21.08c.34 0 .25-2.12-.1-2.33a2.15 2.15 0 0 1-1-1.73c.16-.6-.91-1.25-1.78-1.08a1 1 0 0 1-1-.24 1 1 0 0 0-.65-.38c-.42 0-.41-.23 0-1.29.34-.8.32-1-.29-2.82s-.7-2-1.66-2.41c-.68-.3-1-.63-1.09-1s-.32-.6-1-.78a4 4 0 0 1-1.07-.42 1.08 1.08 0 0 0-.64-.19c-.68 0-1.69-1.14-2.31-2.63a7.74 7.74 0 0 0-1-1.81c-.25-.26-1.07-1.31-1.81-2.34a6.28 6.28 0 0 0-1.6-1.79 2.83 2.83 0 0 0-.64 1.21c-.4 1.15-1.31 2.32-1.79 2.32a2.94 2.94 0 0 1-1-.79 2.48 2.48 0 0 1-.82-2.09c0-1.18-.11-1.3-.72-1.46a5.84 5.84 0 0 1-1.25-1.57c-1.22-1.2-1.86-1.52-2.33-1.13-.31.26-1.59 0-2.3-.44-.28-.18-.24-.3.24-.69s.52-.53.28-.83-.21-.39.24-.51a7.24 7.24 0 0 1 1.47-.14c1 0 1.47.38 2.87 2.23.37.49.88.89 1.13.89a20.18 20.18 0 0 1 4.54 1.48c.43.26.55.26.73 0 .3-.48 0-1-.62-1.12-.31-.08-.57-.25-.57-.37s.2-.11.47 0c.56.3.63.2.83-1.21a1.86 1.86 0 0 0-.28-1.68 5 5 0 0 1-.62-1c-.14-.38-.07-.42.41-.3s.7 0 1.16-.63a3.71 3.71 0 0 0 1-2.42c-.11-.26-1.65-1.2-4.19-2.55a1.21 1.21 0 0 1-.36-1 2.83 2.83 0 0 0-1.62-2.51 9.91 9.91 0 0 1-1.45-1 2.56 2.56 0 0 0-1-.57c-.38 0-1.18-.87-1.66-1.82s-.84-1-3.16-1.31l-2.06-.35c-1.5-.38-3.36 1.35-3.7 3.43-.15 1-.11 1.09.7 1.85s1.06 1.42.46 2.08-1 .56-1-.05a2.1 2.1 0 0 0-.7-1.14c-.62-.58-.71-.82-.78-2.36-.07-1.77.2-2.48.94-2.48a3.28 3.28 0 0 0 1.17-.51c.94-.58 1.11-1.53.33-1.78-.27-.08-.48-.25-.48-.37 0-.3.32-.29.62 0s2.95 1 4.5 1 2.08-.25 2.08-1.15a1.55 1.55 0 0 1 .6-1.05 1.52 1.52 0 0 0 .6-1 1.89 1.89 0 0 1 .84-1.19 3 3 0 0 0 1-1.17 1.92 1.92 0 0 1 .79-.94l1.08-.72c.37-.26.49-.23.78.16a1.9 1.9 0 0 1 .35.65 4.35 4.35 0 0 1-1.33.77 3.56 3.56 0 0 0-1.32.82 4.64 4.64 0 0 0 1.28 2.54c.7.66.76.67 2.54.51s1.89-.11 2.5.37a12 12 0 0 1 3 4.39c.3 1 .52 1.26.93 1.32s.55.23.55 1c0 1.49 1.46 2.5 2.34 1.62.16-.15.36-.21.45-.12s-.07.39-.35.66c-1 1-.37 3.46 1.48 5.52a22.38 22.38 0 0 1 1.46 1.77 30.33 30.33 0 0 0 4.54 4.34c.76.51 1.05.59 1.58.4a1.81 1.81 0 0 1 1.51.2c1.3.63 2 .73 2.44.4s.39-.47.14-2a8.58 8.58 0 0 0-.61-2.18 1.86 1.86 0 0 1-.09-1.5 2.44 2.44 0 0 0-.26-2c-.65-1.36-.61-1.53.44-2.19a3.37 3.37 0 0 0 1.4-3.44c-.13-.86-.06-1 1-2.21a3.89 3.89 0 0 0 1.31-2.36 3.35 3.35 0 0 0-1.52-3.71c-1.44-.9-2.63-1.93-2.64-2.27a6.2 6.2 0 0 0-.79-1.48c-.54-.83-1-1.26-1.47-1.37a4.75 4.75 0 0 1-1.56-1c-1.05-.93-1.75-1.33-2.39-1.33s-1.81-1.16-3.25-2.94c-1-1.22-1.49-1.37-2.45-.74-.56.37-.67.37-1.44 0a5.92 5.92 0 0 0-2.11-.4c-1.35 0-1.74.21-3.5 1.81a5.69 5.69 0 0 1-1.79 1c-.81.23-1 .2-1.53-.2s-1-.46-2.3-.46a16.63 16.63 0 0 0-5.75 1.09 3.14 3.14 0 0 1-1 .34 2.59 2.59 0 0 0-1.06.63c-.64.53-.74.78-.74 1.78s.42 1.91 1 1.91c.12 0 .22.16.22.36s-.1.36-.24.36a.24.24 0 0 1-.24-.24c0-.13-.16-.24-.36-.24a.36.36 0 0 0-.36.35c0 .45-.34.65-.82.47s-.54-.82-.17-.82.51-1.16.34-1.6a.53.53 0 0 0-.45-.31 2.23 2.23 0 0 1-1-.72 2.16 2.16 0 0 0-.95-.73c-.44 0-.85.88-.76 1.64.06.54.21.65.87.72 1 .09 1.24.66.53 1.16-.42.3-.48.52-.35 1.1s.08.69-.17.61-.3-.38-.26-.74c.08-.72-.32-1-1.78-1.21-.73-.11-1.08-.06-1.3.21-.4.48-.95 0-.95-.76s-.23-.71-1-.07l-.62.48-.15-.58a1.75 1.75 0 0 1 .13-1.11c.56-1 .16-1.29-1.74-1.12a6.27 6.27 0 0 0-1.95.39c-.12.12-.12.48 0 .89a8.76 8.76 0 0 1 .42 1.68 2.61 2.61 0 0 0 .44 1.23 6.89 6.89 0 0 0 1.95.38 19 19 0 0 1 2.22.3c.42.11.58 0 .73-.4l.21-.55.4.57a2.13 2.13 0 0 1 .4.89c0 .17.32.37.71.45.76.15 1.14.73.74 1.13-.17.18-.48.12-1-.18a2.27 2.27 0 0 0-2.62.22 1.12 1.12 0 0 1-.73.35c-.55 0-.82.8-.48 1.42a2.44 2.44 0 0 1 .25 1 .92.92 0 0 0 1.14.81c.43-.16.38.12-.19.92a1.58 1.58 0 0 1-.92.69 1.72 1.72 0 0 0-.88.36c-.89.67-1.78.33-.95-.36.48-.39.45-.61-.14-1.42l-.51-.66.61-1.21a5 5 0 0 1 1.23-1.6c.67-.44.82-1.21.26-1.42a3.1 3.1 0 0 0-1.41.18 2.18 2.18 0 0 1-1.81 0c-.67-.29-.75-.42-.75-1.35a2.38 2.38 0 0 0-.83-1.94 2.73 2.73 0 0 0-1.26-.89 12.06 12.06 0 0 0-2.46 1c-1.89.94-2.06 1.08-2.26 1.93a2.29 2.29 0 0 0-.09 1 3.35 3.35 0 0 0 1 .2c1.07.09 1.22.21.75.6a1.15 1.15 0 0 0-.37.76.92.92 0 0 1-.48.69 1.56 1.56 0 0 0-.63.86c-.2.83-.62.61-1-.54a9 9 0 0 0-1-1.83 3.13 3.13 0 0 1-.66-1.32c0-.34-.22-.52-.78-.63l-1.5-.3a3.89 3.89 0 0 1-1.19-.47 2 2 0 0 0-1-.33c-.47 0-.49-.14-.49-2.93 0-2.33.09-3.11.42-3.76a4.53 4.53 0 0 0 .42-1 4.5 4.5 0 0 0-1.26-.93 2.9 2.9 0 0 0-2-.6c-.5.09-.84 0-1-.23a.73.73 0 0 0-.5-.33zm95.78.09l-.52.52c-.44.44-.47.59-.22.9a1.12 1.12 0 0 0 .73.37 1.09 1.09 0 0 1 .72.36l.09.09.1.09.29.15h.38a.45.45 0 0 0 .35-.46.76.76 0 0 0 0-.21.24.24 0 0 0-.05-.09.61.61 0 0 0-.18-.24l-.08-.06h-.08a3.06 3.06 0 0 1-1-.78l-.54-.62zm-104.21.83A1.69 1.69 0 0 0 63 20.78c0 .44.47.41 1-.07s.56-1.01.13-1.01zm105.35 2.3h-.18a.63.63 0 0 0-.49.58c0 .36.12.44.46.33a.59.59 0 0 1 .62.1.48.48 0 0 0 .3.25c.08 0-.05-.21-.28-.46s-.36-.57-.28-.7 0-.15-.15-.14zm-4.72.61a.82.82 0 0 1 .26 0c.19.08.14.14-.14.15s-.36 0-.34-.1a.28.28 0 0 1 .2-.07zm4.51 2.13c-.22 0-.28.44-.13.7l.07.11c.3.3.5.16.4-.27l-.26-.51h-.08zm-70.92 0a4.52 4.52 0 0 0-.76.08c-1.32.19-1.58.37-1.36.93s1.14.51 1.91 0c.32-.22.59-.55.59-.75s-.09-.27-.38-.27zm.47 2h-.09c-.13.08-.24.2-.24.25s.11.11.24.11a.25.25 0 0 0 .24-.26.13.13 0 0 0-.15-.14zm81.84.4c.56 0 1 .37 1.54 1.38a2 2 0 0 1 .24.53 6.13 6.13 0 0 1-2.35-1.71c-.04-.08.22-.16.52-.16zm.15.24v.08l.16.22c.32.4.51.53.51.33a1.51 1.51 0 0 0-.42-.42c-.19-.15-.28-.22-.3-.21zm-79 2.4a.25.25 0 0 1 0 .49.24.24 0 0 1-.24-.24.24.24 0 0 1 .24-.21zm82.33.25a.24.24 0 0 1 .24.24.24.24 0 0 1-.48 0 .24.24 0 0 1 .24-.2zm-79.45.18a14.58 14.58 0 0 1 1.68.27c.9.18.94.22.36.24a11.27 11.27 0 0 0-1.2.12 2.14 2.14 0 0 1-.91 0c-.24-.06-.39-.24-.33-.4s.12-.18.4-.18zm83.82.23v.07a.8.8 0 0 0 0 .75 1 1 0 0 0 .83.44.8.8 0 0 0 .44-.07c-.41-.4-.82-.8-1.24-1.19zm-11.68.82h-.06c-.1.1-.07.33 0 .52l.08.14a.41.41 0 0 0 .31.22.2.2 0 0 0 .12-.06.76.76 0 0 0-.46-.82zm-3.22 1.46a2.87 2.87 0 0 0-.87.24c-.54.2-.6.29-.32.47.69.44 1.9.08 1.57-.46a.42.42 0 0 0-.38-.25zm4.29.06a.82.82 0 0 0-.6 1c.09.24.24.33.42.3a1 1 0 0 0 .53-.45.69.69 0 0 0-.05-.74.36.36 0 0 0-.24-.09h-.07zm-28.29 2.84c-.53 0-.86.3-1.44 1s-1.07 1-1.69 1c-1 0-1.42.59-1 1.45a.94.94 0 0 0 .77.62.65.65 0 0 1 .63.35.76.76 0 0 0 .66.37 2.61 2.61 0 0 1 1 .3 4.7 4.7 0 0 0 2 .21c1.25-.07 1.5-.16 1.66-.6a11.34 11.34 0 0 0 .36-1.89c.18-1.62-.18-2.15-1.7-2.57a4.14 4.14 0 0 0-1.25-.22zm22.95.13l-.05.06c-.11.17.15.61.45.9a1.37 1.37 0 0 0 .83.29.05.05 0 0 1 0-.06c.15-.05.17-.22.09-.42l-.24-.32a2.39 2.39 0 0 0-1.12-.43zm12.62.66c.09 0 .16.21.16.6a2.85 2.85 0 0 0 .37 1.31 1.37 1.37 0 0 1 .2.36l-.3-.3a2 2 0 0 0-1.13-.49c.17-.06.22-.23.3-.62.1-.56.27-.86.39-.86zm-100.79.24h.09a.78.78 0 0 1 .49.22c.36.36.35.39-.13.39a.92.92 0 0 1-.66-.22c-.15-.23-.02-.37.2-.39zm97.45 0c.17 0 .29.1.49.35a1.12 1.12 0 0 0-.5-.32zm-103.76.09h.05a2.85 2.85 0 0 1 .37 1.16l-.5-.13c-.23-.06-.42-.18-.42-.27a1.22 1.22 0 0 1 .5-.78zm104.32.34a2.52 2.52 0 0 0 1.2.7 1.49 1.49 0 0 1-1.14-.62zm-23 .39a.24.24 0 0 0-.24.24.24.24 0 0 0 .48 0 .24.24 0 0 0-.23-.21zm-69.2.78a1 1 0 0 1 .48.13 6.55 6.55 0 0 0 1.36.4c1.12.2 1.06.71-.11.81a2 2 0 0 1-1.5-.46c-.54-.4-.58-.87-.22-.87zm92.9 1.16a.72.72 0 0 0-.09.2.61.61 0 0 1 .1-.17zm-77.79.57a.79.79 0 0 1 .33.13c.33.18.48.5.48 1.09 0 1 .33 1.08.76.18.18-.36.43-.66.56-.66.41 0 .41 1 0 1.64s-.34.71-.11 1.12c.29.56.65.55 2.09 0 .59-.24.84-.25 1.05 0s.1.45-.46 1a3 3 0 0 0-.81 1.27c-.07.47-.23.55-1.16.57-1.6 0-1.64.05-2 .67a1 1 0 0 0-.08 1.23c.25.54.24.69-.11.94a.8.8 0 0 0-.17 1.25c.18.18.15.34-.11.56a2 2 0 0 0-.37 1.46 2.53 2.53 0 0 1-.22 1.3c-.14.08-.14.41 0 .86.22.62.17.85-.37 1.63-.8 1.16-.79 1.4.14 2.36a2.23 2.23 0 0 1 .76 2 2 2 0 0 1-.93 2 4.85 4.85 0 0 1-1.55.94c-1 .2-1.34.48-1.27 1 0 .24.18 1.23.31 2.2l.24 1.76-.75.7a8.27 8.27 0 0 1-.8.71 7.18 7.18 0 0 1-.71-.9c-.6-.85-.61-.91-.17-1a.76.76 0 0 0 .6-1 1.93 1.93 0 0 0-.75-.47c-.59-.22-.6-.26-.45-1.87l.16-1.65-.76-.27a5.31 5.31 0 0 0-1.26-.27 7.84 7.84 0 0 1-3.47-2.45 5 5 0 0 0-2.58-1.87 2.07 2.07 0 0 1-.84-.24c-.38-.2-.42-.42-.31-1.41s.07-1.22-.37-1.5c-.63-.4-.64-.7 0-1.87.72-1.42 3.57-3.62 4.67-3.62a1.42 1.42 0 0 0 .79-.61 2.46 2.46 0 0 1 1.57-.86 3.17 3.17 0 0 0 1.39-.58.92.92 0 0 1 .54-.34c.13 0 0 .27-.31.6s-.48.68-.35.79l.87.72.63.56 1-.51c.9-.46 1-.47 1.51-.14.67.48 1.84.48 2 0 .08-.22-.31-.87-1-1.68l-1.13-1.33.58-.86a2.9 2.9 0 0 1 .83-.84 2.07 2.07 0 0 0 .73-.5 1.16 1.16 0 0 0 .4-1.29c-.11-.54 0-.87.21-1.08a1.45 1.45 0 0 0 .37-1c0-.38 0-.55.15-.57zm61 .69c-.17 0-.32.19-.27.55a11.86 11.86 0 0 1 .09 1.23c0 .73.07.79.83.79h.38a.13.13 0 0 1 .1 0 .52.52 0 0 1 .43.24c.09.13.11.2.07.21.35.86 1.47 1.35 3.81 1.67l.29.05h.17a2 2 0 0 1 .88.29c.54.26.67.66.55 1.3s-.06.82.59 1.16l.18.11a1.59 1.59 0 0 1 .27.21l.09.11a.5.5 0 0 1 .08.12V48.84a1 1 0 0 1 0 .17v.2c0 .62.38.88.82.67l.46-.43v.05c.09-.06.13 0 .13.15a2 2 0 0 0 .09.44l.19.57.17.46a2.8 2.8 0 0 0 .51.92.22.22 0 0 0 .14-.12 1.62 1.62 0 0 0 .15-.32c.05-.14.05-.19.08-.29l.15-.46v-.1c0-.26 0-.4.12-.32a3.82 3.82 0 0 1 .21-.46l.24-.45c.56-1 .7-1.71.41-2.22l-.08-.12a1.21 1.21 0 0 0-.35-.32l-.19-.15c-.05 0-.2-.14-.33-.31a3 3 0 0 1-.46-.72l-.06-.1-.1-.15a.91.91 0 0 0-.71-.41 5.72 5.72 0 0 1-1.71-.6 9 9 0 0 0-1-.42l-.4-.13h-.56l-.64-.26-.35-.19a2.74 2.74 0 0 0-2-.39l-.66.06-.17.05a.36.36 0 0 0 0-.29c-.08-.2-.19-.36-.24-.36s-.1.16-.1.36a.4.4 0 0 0 .15.33.16.16 0 0 1-.1 0h-.09v-.4a1.3 1.3 0 0 1 0-.31 6.34 6.34 0 0 0 0-.76 1.5 1.5 0 0 0-.24-.42c-.42-.51-.46-.53-1-.15h-.05l-.13.08-.22.13h-.07c-.14 0-.17-.06-.23-.29a.19.19 0 0 1 0-.08v-.08l-.05-.08a.34.34 0 0 0-.26-.21zm30.77 2.59l.18.24.24.28.27.29.21.17a.28.28 0 0 0 .23 0 3.67 3.67 0 0 1 0 .67c-.06 1.13-.42 1.44-1.13 1-.31-.22-.29-.29.11-.61s.46-.39.06-1.45a6 6 0 0 1-.19-.63zm-10.61.36l-.14.11-.16.07-.23.11-.19.13-.13.13v.11-.02a.11.11 0 0 1-.06.07q-.11 0-.42-.12c-.45-.24-.48-.19-.48.94a3.16 3.16 0 0 1-.21 1.25 3.08 3.08 0 0 0 .11-1.31l-.09-1.27h.76a2.1 2.1 0 0 0 1.29-.27zM76.23 44.85c.41 0 .53.39.05.74s-1.46.43-1.66.1c-.08-.13.08-.35.34-.5s.48-.19.48-.12.21 0 .47-.11a1 1 0 0 1 .32-.11zm123.15.18v.05zm-6.07.18c0 .1.12.19.4.19h-.12c-.25.05-.33 0-.29-.18zm-77.75.69a1.17 1.17 0 0 1 .84.62c.46.7.38.9-.21.57a2 2 0 0 1-.67-.7c-.17-.32-.11-.48 0-.49zm80.87 0l.15.08c.28.29 0 .47-.78.49.46-.05.76-.15.79-.25s0-.23-.16-.32zm-26.09.06h-.27l-.16.07-.26.19a.72.72 0 0 0-.31.37 1 1 0 0 0 .06.46c0 .12.05.29.08.46v.11a1.3 1.3 0 0 1 .11.89l-.09.16c0 .52.09.82.33 1l.1.06a3.61 3.61 0 0 1 .68.69l.28.35.38.53c.71 1.07 1 1.32 1.54 1.32h.25a.71.71 0 0 0 .56-.51 2.49 2.49 0 0 0 .08-.35v-.09a7.85 7.85 0 0 0 .06-1 1.66 1.66 0 0 0 0-.24 3.2 3.2 0 0 0-.69-1.38l-.08-.11-.3-.33a5 5 0 0 1-1.08-1.58 1.26 1.26 0 0 0-.6-.79l-.18-.1-.15-.08-.15-.06h-.24zm15.82.45h.25a.82.82 0 0 1 .4.88 1.27 1.27 0 0 0-.2-.67.27.27 0 0 0-.27-.14c-.39 0-.93.77-1 1.46a3.78 3.78 0 0 0-.12-.57c-.1-.39 0-.54.23-.54a.5.5 0 0 0 .46-.29.27.27 0 0 1 .25-.17zm-131.51 1.5a1.22 1.22 0 0 0-.53.4 3.29 3.29 0 0 0-1 2.28c.16.42.2.42.82-.59a6.83 6.83 0 0 1 1-1.27c.4-.32.41-.4.09-.67a.6.6 0 0 0-.3-.15zm134.49.59a2 2 0 0 0-.21.26c-.15.25-.12.46.06.88-.21-.43-.22-.64-.06-.88zm-3.72.07c0 .26.11.38.23.37a.15.15 0 0 1-.2-.12v-.25zM101.8 49.7c-.79 0-1.71.78-1.51 1.29s1.09.49 1.81-.06.54-1.23-.3-1.23zm99.78 0c-.23 0-.32.14-.32.45v.13a.51.51 0 0 0-.47-.55.46.46 0 0 0-.27.07.38.38 0 0 0-.09.09v.05a.17.17 0 0 0 0 .12v.08l.1.16c.37.43.71.43.71 0 0 .26.17.35.42.3a.5.5 0 0 0 .41-.44.49.49 0 0 0-.41-.43h-.1zm-11.21.37c0 .14-.07.29-.1.47l-.05.24a2.92 2.92 0 0 1 .15-.71zm2.64.11a.53.53 0 0 1 .37.16 1 1 0 0 0-.56-.12h-.2l.39-.07zm11.64.04a1 1 0 0 1 .31.06c.21.09.31.26.23.39a.4.4 0 0 1-.73 0c-.16-.27-.07-.45.19-.44zm-13 .42a1.9 1.9 0 0 0-.52.43c.03-.2.18-.31.52-.44zm-2 .12l.1.15.37.47v.14l-.44-.76zm-85.44.28a.9.9 0 0 0-.79 1.17c.19.48.74.51 1.12 0s.21-1.21-.33-1.21zm91.69.33a1.92 1.92 0 0 1 .87.22h.06a6.86 6.86 0 0 0-.99-.23zm5.72 0c-.05 0-.1.16-.1.36s.11.36.23.36.18-.17.1-.36-.2-.34-.29-.34zm-12.31 2.69a2.81 2.81 0 0 0 .35 2l-.09-.15-.11-.24-.09-.2v-.05l-.05-.14c0-.12-.05-.23-.07-.34v-.12a.37.37 0 0 1 0-.11v-.07a.75.75 0 0 1 0-.21 2.07 2.07 0 0 1 .1-.33zm-74.56.42a.37.37 0 1 0 .36.36.36.36 0 0 0-.46-.34zm93.26.65a1 1 0 0 1 0 .17.41.41 0 0 1 0 .1 1.36 1.36 0 0 0 0-.27zm-12.18.85c-.07 0-.07.13-.07.37a.86.86 0 0 0 .11.43l.08.1.25.15H196.54a.17.17 0 0 0 .18-.18 1.51 1.51 0 0 0-.48-.64c-.23-.21-.35-.32-.41-.31zm5.28.4c-.17 0-.31.36-.31.93 0 .31.14.53.34.53.46 0 .6-.48.31-1.14-.11-.24-.23-.34-.34-.32zm-.55 0c-.13 0-.24.22-.24.49s.11.43.24.35a.65.65 0 0 0 .24-.5c-.06-.14-.15-.29-.3-.29zm-3.67.72c-.16 0-.1.15.19.47a1.47 1.47 0 0 0 .63.48c.11 0 .08-.21-.08-.48a1 1 0 0 0-.65-.47zm11.14.31a.81.81 0 0 1-.66.4 1.52 1.52 0 0 0 .6-.35zm1.78 2.7zm-107.18.14c-.16 0-.27.21-.45.58-.36.8-.35 1.47 0 1.63l.34.13.42-.13a1.48 1.48 0 0 0 .65-.62c.2-.38.14-.58-.29-1s-.54-.55-.7-.55zm87.24.58a.2.2 0 0 0 0 .11v-.1zm5.14.81h-.06l-.06.06a.46.46 0 0 0 .05.43c.15.25.2.25.28 0a.47.47 0 0 0 0-.44l-.17-.08zm14.35.64a2.68 2.68 0 0 1 0 .56 5.45 5.45 0 0 0-.06-.51zm-128.3.1a.66.66 0 0 1 .38.14 2.11 2.11 0 0 1 .37 2.23c-.18.49-.24.51-.52.18a3.1 3.1 0 0 1-.48-2.35.35.35 0 0 1 .25-.2zm121.84.51a1.43 1.43 0 0 1 .29 1.14v-.15a1.76 1.76 0 0 0-.3-1zm-.67.14a.5.5 0 0 0 0 .12c0 .33 0 .42-.1.25l.1-.31zm8.21 2.75a1.94 1.94 0 0 0-.38.73 1.21 1.21 0 0 1 .32-.68zm-20.1.09v.06a.43.43 0 0 0 0 .12v-.09zm-138.83.11a.23.23 0 0 1 .24.22.52.52 0 0 1-.24.37c-.14.09-.24 0-.24-.22a.5.5 0 0 1 .06-.26.32.32 0 0 1 .09-.08.14.14 0 0 1 .09 0zm135.33.08h.05-.05zm24.55.21l-.25.2a.57.57 0 0 1 .19-.15zm.77.39c.24.22.36.4.35.59a1.08 1.08 0 0 0-.41-.54zm-12.25.23a1.65 1.65 0 0 0-.19.25l.19-.25zm3.08 0h.12a1.27 1.27 0 0 0-.9.37 1.18 1.18 0 0 1 .76-.36zm-8.92.12a.4.4 0 0 0 0 .15v-.15zm6.8 0a.51.51 0 0 1 .42.22.67.67 0 0 0-.56-.19.35.35 0 0 1 .14 0zm9.06 0a1.62 1.62 0 0 0 0 .3.29.29 0 0 0 0 .11c-.07 0-.1-.09-.09-.13a1.86 1.86 0 0 0 .08-.28zm-9.38.07l-.16.09-.18.07-.23.06a2.55 2.55 0 0 0 .57-.22zm3.34.29l-.07.13a.28.28 0 0 0 .09-.14zm-11.84 3.28a9.9 9.9 0 0 0-.48 1.38l-.07.27a.13.13 0 0 1 0-.06l.06-.21v-.05a10.36 10.36 0 0 1 .48-1.33zm.78.26a5.89 5.89 0 0 1-.38 1.2 8.48 8.48 0 0 0 .32-1.05zm-146 .48c.08.07.14.13.14.2a.13.13 0 0 1 0 .06v.05l-.15.08a.3.3 0 0 0 .1-.48zm31.93 2c.07 0 .07.09 0 .25-.16.42-.33.5-.33.15a.52.52 0 0 1 .24-.37h.08zm11.84.07a1.7 1.7 0 0 1 .59.12 1.81 1.81 0 0 1 1.08 1.07c.19.44.49.8.69.8.37 0 .69.91.56 1.57-.06.31-.45.41-1.77.49l-1.7.12-.34-.87c-.3-.75-.41-.84-.95-.7-1.78.46-3.6.3-3.6-.33 0-.35 2.38-1.27 3.1-1.19a2 2 0 0 0 1.42-.57c.31-.19.54-.34.81-.34zm-46 .79c0 .16.05.22.11.18-.21.28-.23.23-.23-.01zm151 1.13h-.06zm-71.95 1.93a.24.24 0 1 0 .24.24.24.24 0 0 0-.24-.24zm74.22.31v.08zm-106.16 1.6c1 0 1 .48 0 1.28a4.26 4.26 0 0 0-1.68 3.46 2 2 0 0 1-.36 1.58c-.61 1-1.08 1.22-1.55.75-.71-.71 0-3.28 1.48-5.51 1-1.43 1.14-1.55 2.15-1.56zm2.56.5a2.64 2.64 0 0 1 .7.17 2.87 2.87 0 0 0 2.3.06.8.8 0 0 1 .78 0 3.2 3.2 0 0 1 1.16 2c0 .58-.65.47-1.13-.1s-1.18-.68-.9-.22a1.52 1.52 0 0 1-.2 1c-.2.42-.48 1.05-.62 1.41s-.41.67-.61.67-.38-.28-.42-.67a1.13 1.13 0 0 0-.62-.89c-.34-.15-.5-.37-.41-.6.4-1 .39-1.72 0-2.17s-.38-.69 0-.69zm118.27 2.77l-.13.06zm-14.86.6l-.12.34zm-22.85.21a.52.52 0 0 0-.37.24c-.08.13 0 .23.22.23s.38-.1.38-.23a.23.23 0 0 0-.23-.23zm-73.1.68c1.77 0 2.4.21 2 .67s-3.82.37-3.82-.08.42-.58 1.82-.58zM99 86.18c.13 0 .17.11.09.24a.54.54 0 0 1-.39.24c-.13 0-.17-.11-.09-.24a.54.54 0 0 1 .39-.2zm-1.92.1a2.08 2.08 0 0 1 .41.05c1 .2.85.59-.46 1.07l-1.43.56a.58.58 0 0 1-.55 0c-.31-.32-.16-.57.76-1.17a2.25 2.25 0 0 1 1.27-.5zm118.68 1h-.28.18l.14-.06zm-17.11.94l-.27.78q.16-.34.27-.78zm-6.95 6.14c-.07 0-.1.15-.1.36s.11.31.25.23a.28.28 0 0 0 .1-.38c-.1-.16-.19-.23-.25-.21zm21.87 1.86l.08.12.11.12a1.33 1.33 0 0 1-.19-.24zm.54.56l.08.09-.09-.09zm.25.39v.1a.31.31 0 0 1 0 .1.65.65 0 0 0 0-.25zM52.65 111.52v-.03zm2.1 3.55l.1.12a.22.22 0 0 0-.07-.17zm44.28 1.89l-.52.07c-.56.13-.68.23-.43.38.45.29 1.11.28 1.3 0s.07-.45-.35-.42zm-.34 3.57a.74.74 0 0 0-.27.06c-.52.2-.47.77.15 1.61.74 1 1 .9.81-.31-.19-.95-.38-1.35-.73-1.36zm-8.15 2.91c-1.8 0-3.15.52-3.5 1.29-.16.35-.22.7-.14.78a4.14 4.14 0 0 0 1.62-.39l1.67-.61v-.06a.66.66 0 0 1 .45 0h.06a1.62 1.62 0 0 1 .62.45 3.1 3.1 0 0 0 1.67.82l.66.18.34.12a4.73 4.73 0 0 1 1.27.68 4.61 4.61 0 0 0 1.07.42 1.33 1.33 0 0 1 1.1 1c.2.49.5.8.76.8.63 0 1.4.6 1.05.82a.64.64 0 0 0-.28.48c0 .17.38.26 1.5.27l.12-.06a3.26 3.26 0 0 1 1.08 0c.09 0 .13 0 .12.05h.42a16.65 16.65 0 0 0 2.68-.19c.08-.09 0-.32-.15-.51a13.08 13.08 0 0 0-3.46-1.82 8.3 8.3 0 0 1-1.78-1.42c-1.35-1.27-1.59-1.42-2.3-1.3a1.59 1.59 0 0 1-1.51-.49c-1-.85-1.7-1.07-3.87-1.25a12 12 0 0 0-1.32 0zm-34 1a.82.82 0 0 1 .28.69v-.1a1.24 1.24 0 0 0-.26-.59zm49.23.91a.43.43 0 0 0-.24.06c-.27.17-.1.6.24.6a.5.5 0 0 0 .35-.22c.05-.2-.17-.41-.47-.42zm-48 .19h-.09l.09-.06zm32 .28c-.21 0-.4.1-.4.31s.16.37.42.32.41-.19.4-.32-.22-.29-.42-.29zm-32.18.74c.05.08.08.13.06.19a.38.38 0 0 0-.06-.17zm49.22 1.66h-.08c-.6.12-.69.68-.1.68.29 0 .5-.15.5-.38a.28.28 0 0 0-.32-.31zm-46.94 1.55c-.05.09 0 .23.22.35.35.22.59.27.68.16a.45.45 0 0 1 0-.11l-.45-.32zm48 .93h-.27a1 1 0 0 0-.43.12c-.31.21-.27.31.22.69l.09.08c.23.14.41.32.41.44s-.06.2-.16.21a3.57 3.57 0 0 1-.22.35 1.28 1.28 0 0 1-1.3.61c-1.31 0-1.44 0-1.44.39s.89.83 1.56.68a8.18 8.18 0 0 1 1.13-.1h.19a6 6 0 0 1 .87-.1c-.06-.07 0-.1.26-.1a3.11 3.11 0 0 1 1 .23h.51c.46.07.59 0 .56-.35a.55.55 0 0 1 0-.23c0-.08 0-.13.13-.13-.11 0-.15.12-.1.2a.39.39 0 0 0 .72 0c.05-.08 0-.15-.1-.19l.32.09.13.06H113.83a1.83 1.83 0 0 1 .84.15.74.74 0 0 0 1.18-.14c.21-.54.11-.64-1.83-1.8a5.18 5.18 0 0 0-3.55-1.08 15.22 15.22 0 0 1-2.4-.19h-.26zm-9.22 2.32c-.56 0-1 .18-1 .45 0 .43 1.54 1.26 2 1.08h.12a.44.44 0 0 1 .27-.05 4.22 4.22 0 0 1 .49 0c.83 0 .72-.57-.2-1.06a3.58 3.58 0 0 0-1.71-.35zm20.7.49c-1.14 0-1.57.23-1.29.67.1.17.76.24 1.76.2 1.23-.05 1.6-.15 1.6-.43s-.37-.38-1.54-.43zm-48.1 2.2a.13.13 0 0 0-.07 0c0 .05.14.36.35.68l.08.13.2.26c.08.11.15.18.19.18s0-.23-.09-.53a1.59 1.59 0 0 0-.37-.64l-.13-.09a.21.21 0 0 0-.15 0zm57.48 1.16c-.14 0-.23.17-.23.44s.12.48.3.42a.44.44 0 0 0 0-.84h-.07zm-52.16.11zm-4.38.11c-.07 0-.06.09 0 .22a7.05 7.05 0 0 0 .8.86 1.83 1.83 0 0 0 1.24.53.31.31 0 0 0 .15-.32 4.32 4.32 0 0 0-1.21-.86l-.41-.24a1.75 1.75 0 0 0-.62-.22zm11.88 7.31h.13l.13.07a.56.56 0 0 1 .21.23v.05c0 .05 0 0 0 0a.16.16 0 0 1-.23.15h-.12a.36.36 0 0 1-.37-.35c0-.14.07-.23.18-.24zm25.67 4.5a.37.37 0 0 1 .26.09l.21.18a1.36 1.36 0 0 1 .48.8c0 .14 0 .2-.09.17v.05c-.21.68-.73.81-1.18.31a1.49 1.49 0 0 1-.27-.38c-.09.2-.09.11-.1-.27v-.08a.78.78 0 0 1 .26-.64l.07-.08a.75.75 0 0 1 .28-.16zm23.48 4.57h.07a1.14 1.14 0 0 1 .44.19.77.77 0 0 0-.71-.07.53.53 0 0 1 .2-.12zm-.56 1.11a.35.35 0 0 0 .37.09.46.46 0 0 1 .58.24c.1.25 0 .32-.32.23s-.41 0-.46.08a1.64 1.64 0 0 1-.17-.64zm.49 1h.16-.11zm.8 0c.16 0 .46.26.65.64a3.86 3.86 0 0 0 .73 1 1 1 0 0 1 .38.65.35.35 0 0 1 0 .12c.06-.23-.16-.62-.6-1l-.24-.23a2.52 2.52 0 0 1-.37-.49.76.76 0 0 1 0-.11.54.54 0 0 1 0-.1v-.08a.63.63 0 0 0-.12-.23.47.47 0 0 0-.26-.15h-.5.45zm-5.78 1.64v.07a.11.11 0 0 0 0-.07zm2.64.18zm10.21.59v.07a.64.64 0 0 1 0-.05zm-18.3 1.78l.6.65.15.18-.17-.19c-.34-.36-.5-.53-.62-.52a.17.17 0 0 0-.13.08l-.15.22a4.53 4.53 0 0 1-.69.84l-.19.18.49-.62.54-.62zm.9 1a2.57 2.57 0 0 1 .2.35zm-2.29.72a.17.17 0 0 0 .09.14c-.07 0-.12-.06-.12-.08v-.06zm-49.25 2c-.19 0-.23.2-.23.65 0 1.05.6 1.35 1.22.61.27-.32.22-.45-.28-.83a1.88 1.88 0 0 0-.71-.43zm27.81.31a.55.55 0 0 1 .28.07h.11-.11c-.2-.07-.38 0-.65.28l.2-.28a.18.18 0 0 1 .17-.07zm.48.16l.16.09-.14-.07zm27.61.22l-.3.2-.29.22.18-.16.11-.06zm-29 .57l-.29.39-.53.36.45-.37.22-.21zm58.48 0h-.1l-.1.06.08-.05h.09zm-41.9.69v.08c0 .03 0 0 0 0zm13.67.05h-.22.22zm-.86.42zm23.69.23a.13.13 0 0 1 .15.14.25.25 0 0 1-.24.26c-.13 0-.24-.05-.24-.11s.11-.17.24-.25h.09zm9.67.41a.63.63 0 0 0-.15.57.39.39 0 0 1-.08-.19.28.28 0 0 1 .05-.17l.06-.08.08-.09zm-32.86 1.67v.1c0 .03-.01-.1 0-.1zm-32.06.13c.39-.05.72.32.72.9s-.11.73-.69.85c.24-.09.3-.27.27-.63-.08-.75-.17-1.08-.35-1.11zm15.83.36c.05.1 0 .35-.21.73a1.13 1.13 0 0 1-1 .45h-.09a1.27 1.27 0 0 0 1.27-1.13v-.05zm-16 1.43a1.59 1.59 0 0 0-.62.42 1.1 1.1 0 0 1 .63-.41zm47.39 1.87c.13.28.11.57-.17.57a1.69 1.69 0 0 0-.39.06l.06-.05.17-.14a1.3 1.3 0 0 0 .33-.44zm-21.68.23c.09 0 .17 0 .28.15a.48.48 0 0 0-.26-.17zm-16.66 1.75a1.26 1.26 0 0 1 1.18 1c0 .51-.48.56-1.38.2-.64-.26-.7-.84-.13-1.16a.72.72 0 0 1 .35-.03zm.84.76a.38.38 0 0 0-.38.38c0 .42.52.35.67-.1.07-.14-.06-.27-.27-.27zm18.74 0c.25 0 .29.1.16.24.08-.13.05-.19-.14-.22zm-.9.08l-.19.09zm-28.72.19a.54.54 0 0 0-.29.4.45.45 0 0 1 .29-.4zm29.54.38a1 1 0 0 0-.08.36c0 .51-.23.55-.83.11a.79.79 0 0 1-.27-.28l.05.05.09.07c.37.23.71.14 1-.31zm-29.64.64c.21.13.28.28.21.43a.26.26 0 0 1-.07.11.45.45 0 0 0-.11-.49l-.07-.08zm41.1.18a.78.78 0 0 1 .56.25.55.55 0 0 0-.28-.07c-.37 0-.6.16-.64.39a.17.17 0 0 0 0 .07.62.62 0 0 0 .16.38.54.54 0 0 0 .54.21.8.8 0 0 1-.48 0c-.35-.12-.41-.93-.08-1.13a.49.49 0 0 1 .22-.1zm-18.86.31zm-23.73 0c-.23 0-.36.09-.37.23 0-.16.11-.24.34-.24zm3.77 0a1.59 1.59 0 0 0 .05.53c.13.65.08.73-.45.73-.29 0-.46 0-.53.1a1.46 1.46 0 0 1 .18-.35c.21-.32.27-.32.5 0 .11.15.16.22.19.19s0 0 0-.09v-.25c-.09-.43-.05-.72.1-.86zm1 .18a5 5 0 0 0 .83.2 2 2 0 0 1-.89-.11zm6.07 0a.8.8 0 0 1 .72.38l-.17-.15a.86.86 0 0 0-.51-.2h-.31a.9.9 0 0 1 .27-.07zm-1.15.21h.27c-.75.27-1.07.49-1.06.82v.1c-.17-.37-.11-.48.24-.73a1.14 1.14 0 0 1 .54-.24zm-3.29.21a1.84 1.84 0 0 1 .6.61v.19a2.16 2.16 0 0 0-.66-.71zm-3.56.86a1.46 1.46 0 0 0 .35.52c-.31-.11-.41-.29-.41-.41zm38.76 0c.21 0 .34.12.28.28-.15.45-.67.52-.67.1a.39.39 0 0 1 .38-.25zm1.53.2a.47.47 0 0 1 .29.08.89.89 0 0 0-.36 0h-.21a1 1 0 0 1 .28 0zm-39 .14a.91.91 0 0 1 .41.15l.48.14c-.46.05-.78.14-.8.28s-.18.21-.47 0c.17.05.28-.05.28-.33s0-.23.1-.25zm39.47.18a.64.64 0 0 1 0 .2.67.67 0 0 1-.42.62l-.23.08a1.06 1.06 0 0 0 .61-.66 1 1 0 0 0 0-.24zm-37.58.06h.2a.75.75 0 0 1 .32.09c-.25 0-.51 0-.75-.05h.23zm36.35 0a1.28 1.28 0 0 0-.17.72.28.28 0 0 0 0 .09v.07c.09.1.28.1.49 0l-.38.18c-.78.42-.8.35-.28-.7a1.62 1.62 0 0 1 .28-.39zm-32.11.39a.86.86 0 0 1 .25.14zm-3.23.47a.64.64 0 0 1 0 .07c.12.47.06.73-.17.88a.22.22 0 0 0-.11.1 1 1 0 0 1 .13-.22 1.27 1.27 0 0 0 .13-.83zm18.12.45a.24.24 0 1 1-.24.24.24.24 0 0 1 .16-.09zm14.09.54zm-32.48.1c0 .08.21.16.59.23l.49.17h-.32c-.46.12-.77 0-.79-.28v-.14zm-3 1.31h.1a.86.86 0 0 1 .33.37 1.06 1.06 0 0 0-.33-.37l-.1-.07zm4.29.52a.33.33 0 0 0 0 .17v-.15zm2.35.31h.11c.14 0 .28.15.51.39a2.11 2.11 0 0 1 .48.71c0 .1.2.24.45.32a1.05 1.05 0 0 1 .58.65.76.76 0 0 0-1.39-.13.53.53 0 0 1-.5.25h-.06a.41.41 0 0 0 .44-.4c0-.13-.16-.23-.36-.23.58 0 .68-.5.18-1s-.57-.43-1-.21l-.21.09.31-.18a1.42 1.42 0 0 1 .35-.11zm13.64.05a1.35 1.35 0 0 1 .39.05l.24.07-.24-.07a1.29 1.29 0 0 0-.58 0 .58.58 0 0 1 .08.1zm1.23.9a.88.88 0 0 0 .19.52c.2.24.21.4 0 .51a1.31 1.31 0 0 0-.35.88 1.9 1.9 0 0 1-.06.31 2.12 2.12 0 0 0-.1-.46V185.08a2.1 2.1 0 0 1 .2-1.07l.16-.4zm-14.76.61h-.08zm-.08 0h-.05zm4.27.55c.24 0 .4.15.4.49a.32.32 0 0 0 .06.18 2.11 2.11 0 0 0-.77-.55h-.1a.86.86 0 0 1 .41-.15zm15.63.06h.12-.11zm-16.37.36l-.06.06-.18.18a.88.88 0 0 1-.17.12h-.18a.52.52 0 0 1-.35-.11c.14.35.47.25.83-.07zm-3.29.06a1.86 1.86 0 0 1 .65.23l1.2.47-.84-.2h-.26c-.54 0-.52.27.14.58a2.49 2.49 0 0 0 .57.21 2.52 2.52 0 0 1-.55-.15 1.93 1.93 0 0 1-.73-.61l-.06-.1c-.2-.11-.3-.23-.2-.25zm17.66.12c0 .27.25.46.6.57l.17.05.4.06h.51c.13 0 .21-.08.21-.15s.16-.25.36-.25a.34.34 0 0 0 .2-.06h.06a.41.41 0 0 0 .07-.11v.15c-.07.61-.63 1-1 .66a1.87 1.87 0 0 0-.81-.19c-.5 0-.77-.27-.79-.65zm4.23 0a1.75 1.75 0 0 1 .85.21l-.44-.11h-.23a.37.37 0 0 0-.23.07.2.2 0 0 0-.07.11c0-.14 0-.24.17-.24zm4.71.31a2.85 2.85 0 0 1 .72 1 1.69 1.69 0 0 1 .22 1.52 1 1 0 0 1-.66.71.82.82 0 0 0 .35-.38 2.46 2.46 0 0 0 .24-.92 3.6 3.6 0 0 0-.98-1.75zm-14 .06h.07l.11.06-.11-.06h-.07zm-7.76.07h.06a.93.93 0 0 1 .49.67v.09a2.14 2.14 0 0 0-.55-.8zm20.7.17a3.62 3.62 0 0 0-.36.42l-.1.14-.15.28a.75.75 0 0 0 0 .24c-.08-.26.06-.47.52-.95l.13-.13zm-12.59.08l.06.06a1.06 1.06 0 0 0 .37.17.54.54 0 0 1-.43-.23zm10.18.13v.06c0 .68-.48.73-1 .12l-.09-.11.21.17a1 1 0 0 0 .63.25h.06c.14-.05.2-.22.22-.47zm-26.45.42a.14.14 0 0 0-.12.09.18.18 0 0 0 0 .1.51.51 0 0 0 .08.24.28.28 0 0 0 .39.11c.17-.1.16-.23 0-.4a.36.36 0 0 0-.32-.14zm31.22.17a.6.6 0 0 0 .46.1c.43 0 .54.07.54.56s.06.52.27.55c-.46 0-.53-.05-.46-.49s-.05-.56-.41-.56a.56.56 0 0 1-.5.02zm-1.62 0c.62 0 .33.67-.33.76-.36 0-.56.25-.58.47v.08a.59.59 0 0 0 .25.4c-.19-.14-.32-.28-.32-.43a1.91 1.91 0 0 0-.22-.67c.2.18.48.1.61-.25v-.07.08c-.1.27 0 .36.25.3a.69.69 0 0 0 .5-.37c.08-.22-.07-.31-.25-.3zm-27 1.48a.69.69 0 0 1 .25.18.65.65 0 0 0-.35-.11s0-.07.07-.07zm-2 .13a2.45 2.45 0 0 0 .76.69 1.11 1.11 0 0 1-.73-.63v-.06zm14.25.1a1.1 1.1 0 0 1 .53.56 1.4 1.4 0 0 0-.6-.34zm-5.76.32a2.18 2.18 0 0 1 .39.05 6.5 6.5 0 0 1 1.47.53 8.18 8.18 0 0 0-1.25-.33 3.45 3.45 0 0 0-.71-.08c-.24 0-.23.12-.16.4a.83.83 0 0 0 .72.55 1.37 1.37 0 0 0-.34.07l-.2.09-.05.05c-.06.06 0 .12.19.24a1.47 1.47 0 0 0 .73.22h-.24c-.46 0-.7.1-.61.24l.06.06a5.74 5.74 0 0 0 1.88.12c1.52-.05 1.78-.13 1.78-.49a.65.65 0 0 0-.51-.31l-.67-.27a4.24 4.24 0 0 0 .6.18h.14a1 1 0 0 1 .63.82 1.2 1.2 0 0 0 1 1l.62.13h.28c.43 0 .73-.1.73-.31s-.38-.5-.84-.85a5.36 5.36 0 0 1-.56-.49 3.37 3.37 0 0 0 .54.36 1.59 1.59 0 0 1 .8.78c.09.32.33.45.89.45 1 0 1.18-.21.73-.73.25.21.36.37.32.49v.05l-.29.17-.26.07-.35.07c-1.09.18-1.17.38-.43 1.07l.22.18.18.15.16.09h.25c.1 0 .18-.13.25-.3s.32-.28 1-.1l1.45.28c-1.49-.24-1.95-.21-2.05.06s1.3 1.18 2.43 1.39c.66.13.87.27.77.53a1.09 1.09 0 0 0 .88 1.29h-.22l-.13-.05a1.45 1.45 0 0 1-.59-.61 4.1 4.1 0 0 0-2.49-1.45c-.34 0-.74.87-.59 1.26a1.63 1.63 0 0 0 .75.63l.16.08c.35.18.36.3.15.56a.48.48 0 0 0 0 .7l.1.07a3.4 3.4 0 0 0 1.66.29h.77l.37-.05a2 2 0 0 1-.5.11 1.1 1.1 0 0 0-1 .62c-.13.29-.37.54-.54.54-.42 0-.38-.26.09-.6s.29-.32-.37-.6-.75-.42-.7-.92a.76.76 0 0 0-.4-.87c-1.51-.79-1.48-.76-1-1.33l.47-.53-1-.88a3.39 3.39 0 0 1-1-1.17c0-.3-.94-.44-2.16-.32-.83.07-.85.14-.27.87.27.35.44.73.37.85a1.26 1.26 0 0 1-.08-.18v-.05a.33.33 0 0 0-.11-.22l-.07-.07-.19-.14-.11-.06-.12-.06c-.33-.12-.61-.33-.63-.46s0-.37-.06-.51c-.05-.42-1.16-.92-2.07-.94a2.09 2.09 0 0 1-1-.18 1.65 1.65 0 0 1-.57-.66 1.06 1.06 0 0 1 0-1c.15-.33.28-.45.59-.44zm-6.76 0l-.07.06zm1.16.27c.22.34.1.55-.36.8l.11-.08a.63.63 0 0 0 .18-.47zm-1.53.27a1.12 1.12 0 0 1 .38.37v-.05a1.51 1.51 0 0 0-.34-.32zm13.52.15a1.3 1.3 0 0 0 .21.35c.25.26.21.27-.22.05l-.39-.16c.32 0 .41 0 .4-.24zm-1.31.16c-.16 0-.24.13-.2.26-.06-.14 0-.23.16-.26zm2.75.93a3 3 0 0 1 .8.42 3 3 0 0 0-.75-.36h-.05v-.09zm-10.61.55c.08 0 .18.05.32.17l.08.07a.72.72 0 0 0-.43-.2l.07-.05zm15.45 1.93a1.73 1.73 0 0 1 .65.36 2.25 2.25 0 0 0-.72-.11zm-11 .23a1.92 1.92 0 0 1 .7.35 8.67 8.67 0 0 1 1.15 1.35 6.19 6.19 0 0 0-1.95-1.45zm9.29.08l1 .15.35.05a8.47 8.47 0 0 1-.95-.13l-.39-.07zm-5.26.35c.16 0 .09.09-.12.27s-.36.36 0 .85c.24.3.5.54.59.54a1.53 1.53 0 0 1 .57.43l-.45-.37a.32.32 0 0 0-.16-.05h-.05a1.11 1.11 0 0 1-.34-.22l-.27-.25-.29-.3a5.07 5.07 0 0 1-.62-.76 1.14 1.14 0 0 0 .63 0l.53-.07zm-1.37 2.56v.06a11.21 11.21 0 0 1 .45 1.52 13.13 13.13 0 0 0-.48-1.58zm3.83 1.46a4.52 4.52 0 0 0 .55.61c.71.68.77 1.59.11 1.59a1.33 1.33 0 0 0-.48.13l.09-.06c.7-.38.89-.61.61-1.09l-.18-.25-.25-.32a5.32 5.32 0 0 1-.45-.61zm-3.35 6a.58.58 0 0 1 .44.24c.18.3.1.3-.36 0-.32.15-.35.05-.18.05z" style="isolation:isolate" fill="#2b2b2b" opacity=".66"/></svg>