<?xml version="1.0" standalone="no"?>
<!DOCTYPE svg PUBLIC "-//W3C//DTD SVG 20010904//EN"
 "http://www.w3.org/TR/2001/REC-SVG-20010904/DTD/svg10.dtd">
<svg version="1.0" xmlns="http://www.w3.org/2000/svg"
 width="180.000000pt" height="180.000000pt" viewBox="0 0 180.000000 180.000000"
 preserveAspectRatio="xMidYMid meet">
<metadata>
Created by potrace 1.11, written by Peter Selinger 2001-2013
</metadata>
<g transform="translate(0.000000,180.000000) scale(0.100000,-0.100000)"
fill="#000000" stroke="none">
<path d="M243 1635 c1 -184 -6 -170 75 -165 l32 2 0 -734 0 -733 600 0 600 0
1 40 c0 22 0 121 1 220 l0 180 -154 0 c-93 0 -156 -4 -160 -10 -4 -5 -8 -29
-8 -52 0 -43 0 -43 -37 -44 -45 -1 -471 -1 -494 0 -14 1 -16 70 -16 729 l0
727 -220 3 -220 2 0 -165z"/>
</g>
</svg>
